<?xml version="1.0" encoding="UTF-8" standalone="no"?>
<svg
   width="22"
   height="22"
   version="1.0"
   id="svg11"
   sodipodi:docname="computer.svg"
   inkscape:version="1.3 (0e150ed6c4, 2023-07-21)"
   xmlns:inkscape="http://www.inkscape.org/namespaces/inkscape"
   xmlns:sodipodi="http://sodipodi.sourceforge.net/DTD/sodipodi-0.dtd"
   xmlns="http://www.w3.org/2000/svg"
   xmlns:svg="http://www.w3.org/2000/svg">
  <sodipodi:namedview
     id="namedview11"
     pagecolor="#ffffff"
     bordercolor="#666666"
     borderopacity="1.0"
     inkscape:showpageshadow="2"
     inkscape:pageopacity="0.0"
     inkscape:pagecheckerboard="0"
     inkscape:deskcolor="#d1d1d1"
     showgrid="true"
     inkscape:zoom="11.092738"
     inkscape:cx="6.3104351"
     inkscape:cy="16.722653"
     inkscape:window-width="1920"
     inkscape:window-height="944"
     inkscape:window-x="0"
     inkscape:window-y="30"
     inkscape:window-maximized="1"
     inkscape:current-layer="svg11">
    <inkscape:grid
       id="grid11"
       units="px"
       originx="-40"
       originy="-40"
       spacingx="1"
       spacingy="1"
       empcolor="#0099e5"
       empopacity="0.30196078"
       color="#0099e5"
       opacity="0.14902"
       empspacing="5"
       dotted="false"
       gridanglex="30"
       gridanglez="30"
       visible="true" />
  </sodipodi:namedview>
  <defs
     id="defs1">
    <style
       id="current-color-scheme"
       type="text/css">.ColorScheme-Text { color:#363636; }</style>
  </defs>
  <g
     id="22-22-computer"
     transform="translate(-127,89)">
    <rect
       id="rect1"
       opacity="0"
       ry="0"
       height="22"
       width="22"
       y="-89"
       x="127" />
    <rect
       style="opacity:0.003;fill:#000000;fill-opacity:1;stroke-width:0.818182"
       id="rect4"
       width="18"
       height="18"
       x="129"
       y="-87" />
    <g
       id="g18"
       class="ColorScheme-Text"
       style="fill:currentColor">
      <rect
         id="rect2"
         width="14"
         height="9"
         x="131"
         y="-83"
         rx="1.5"
         ry="1.5"
         style="opacity:0.25" />
      <path
         id="rect11"
         d="m 132.5,-85 c -1.939,0 -3.5,1.561007 -3.5,3.5 v 6 c 0,1.938993 1.561,3.5 3.5,3.5 h 3.65284 7.34716 c 1.939,0 3.5,-1.561007 3.5,-3.5 v -6 c 0,-1.938993 -1.561,-3.5 -3.5,-3.5 H 142 Z m 0,2 h 11 c 0.831,0 1.5,0.669004 1.5,1.5 v 6 c 0,0.830996 -0.669,1.5 -1.5,1.5 h -11 c -0.831,0 -1.5,-0.669004 -1.5,-1.5 v -6 c 0,-0.830996 0.669,-1.5 1.5,-1.5 z"
         sodipodi:nodetypes="csscccsscccccssccssc" />
      <rect
         style="opacity:1;fill-opacity:1"
         id="rect14"
         width="10"
         height="1"
         x="133"
         y="-70"
         ry="0.43978187"
         rx="0" />
      <path
         id="rect3"
         style="opacity:1"
         d="M 136.15284,-72 136,-73 h 4 v 1 l 0.5,2 -0.5,1 h -4 l -0.34716,-1 z"
         sodipodi:nodetypes="ccccccccc" />
    </g>
  </g>
  <g
     id="16-16-computerno"
     transform="translate(-149,89)">
    <rect
       id="rect5"
       opacity="0"
       ry="0"
       height="16"
       width="16"
       y="-86"
       x="130"
       style="stroke-width:0.727273" />
    <rect
       style="opacity:0.003;fill:#000000;fill-opacity:1;stroke-width:0.727273"
       id="rect6"
       width="16"
       height="16"
       x="130"
       y="-86" />
    <g
       id="g8"
       class="ColorScheme-Text"
       style="fill:currentColor">
      <rect
         id="rect7"
         width="12"
         height="9"
         x="132"
         y="-84"
         rx="1.5"
         ry="1.5"
         style="opacity:0.25" />
      <path
         id="path7"
         d="m 133.5,-86 c -1.939,0 -3.5,1.561007 -3.5,3.5 v 6 c 0,1.938993 1.561,3.5 3.5,3.5 h 3.5 5.5 c 1.939,0 3.5,-1.561007 3.5,-3.5 v -6 c 0,-1.938993 -1.561,-3.5 -3.5,-3.5 H 141 Z m 0,2 h 9 c 0.831,0 1.5,0.669004 1.5,1.5 v 2.5 3.5 c 0,0.830996 -0.669,1.5 -1.5,1.5 h -9 c -0.831,0 -1.5,-0.669004 -1.5,-1.5 v -3.5 -2.5 c 0,-0.830996 0.669,-1.5 1.5,-1.5 z"
         sodipodi:nodetypes="cccccccccccccccccccccc" />
      <rect
         style="opacity:1;fill-opacity:1"
         id="rect8"
         width="10"
         height="1"
         x="133"
         y="-71"
         ry="0.43978187"
         rx="0" />
      <path
         id="path8"
         style="opacity:1"
         d="M 136.15284,-73 136,-74 h 4 v 1 l 0.5,2 -0.5,1 h -4 l -0.34716,-1 z"
         sodipodi:nodetypes="ccccccccc" />
    </g>
  </g>
  <g
     id="computer"
     transform="matrix(1.4545455,0,0,1.4545455,-162.72727,129.45455)">
    <rect
       id="rect9"
       opacity="0"
       ry="0"
       height="22"
       width="22"
       y="-89"
       x="127" />
    <rect
       style="opacity:0.003;fill:#000000;fill-opacity:1;stroke-width:0.818182"
       id="rect10"
       width="18"
       height="18"
       x="129"
       y="-87" />
    <g
       id="g13"
       class="ColorScheme-Text"
       style="fill:currentColor">
      <rect
         id="rect12"
         width="14"
         height="9"
         x="131"
         y="-83"
         rx="1.5"
         ry="1.5"
         style="opacity:0.25" />
      <path
         id="path12"
         d="m 132.5,-85 c -1.939,0 -3.5,1.561007 -3.5,3.5 v 6 c 0,1.938993 1.561,3.5 3.5,3.5 h 3.65284 7.34716 c 1.939,0 3.5,-1.561007 3.5,-3.5 v -6 c 0,-1.938993 -1.561,-3.5 -3.5,-3.5 H 142 Z m 0,2 h 11 c 0.831,0 1.5,0.669004 1.5,1.5 v 6 c 0,0.830996 -0.669,1.5 -1.5,1.5 h -11 c -0.831,0 -1.5,-0.669004 -1.5,-1.5 v -6 c 0,-0.830996 0.669,-1.5 1.5,-1.5 z"
         sodipodi:nodetypes="csscccsscccccssccssc" />
      <rect
         style="opacity:1;fill-opacity:1"
         id="rect13"
         width="10"
         height="1"
         x="133"
         y="-70"
         ry="0.43978187"
         rx="0" />
      <path
         id="path13"
         style="opacity:1"
         d="M 136.15284,-72 136,-73 h 4 v 1 l 0.5,2 -0.5,1 h -4 l -0.34716,-1 z"
         sodipodi:nodetypes="ccccccccc" />
    </g>
  </g>
</svg>
