<?xml version="1.0" encoding="UTF-8" standalone="no"?>
<svg
   xmlns:dc="http://purl.org/dc/elements/1.1/"
   xmlns:cc="http://creativecommons.org/ns#"
   xmlns:rdf="http://www.w3.org/1999/02/22-rdf-syntax-ns#"
   xmlns:svg="http://www.w3.org/2000/svg"
   xmlns="http://www.w3.org/2000/svg"
   xmlns:sodipodi="http://sodipodi.sourceforge.net/DTD/sodipodi-0.dtd"
   xmlns:inkscape="http://www.inkscape.org/namespaces/inkscape"
   inkscape:version="1.0 (1.0+r73+1)"
   sodipodi:docname="media.svg"
   id="svg53"
   viewBox="0 0 20.108389 8.4667"
   version="1.1"
   height="32"
   width="76">
  <sodipodi:namedview
     inkscape:snap-global="true"
     inkscape:snap-object-midpoints="true"
     inkscape:snap-bbox-midpoints="true"
     inkscape:snap-smooth-nodes="true"
     inkscape:snap-intersection-paths="false"
     inkscape:bbox-nodes="true"
     inkscape:object-paths="true"
     inkscape:snap-bbox="true"
     inkscape:current-layer="svg53"
     inkscape:window-maximized="1"
     inkscape:window-y="0"
     inkscape:window-x="36"
     inkscape:cy="81.162465"
     inkscape:cx="35.749499"
     inkscape:zoom="5.6568543"
     showgrid="true"
     id="namedview36"
     inkscape:window-height="1011"
     inkscape:window-width="1884"
     inkscape:pageshadow="2"
     inkscape:pageopacity="0"
     guidetolerance="10"
     gridtolerance="10"
     objecttolerance="10"
     borderopacity="1"
     bordercolor="#666666"
     pagecolor="#ffffff">
    <inkscape:grid
       id="grid930"
       type="xygrid" />
  </sodipodi:namedview>
  <metadata
     id="metadata57">
    <rdf:RDF>
      <cc:Work
         rdf:about="">
        <dc:format>image/svg+xml</dc:format>
        <dc:type
           rdf:resource="http://purl.org/dc/dcmitype/StillImage" />
        <dc:title></dc:title>
      </cc:Work>
    </rdf:RDF>
  </metadata>
  <defs
     id="defs3">
    <style
       id="current-color-scheme"
       type="text/css">.ColorScheme-Text { color:#363636; } </style>
  </defs>
  <g
     transform="matrix(0.26458,0,0,0.26458,-6.8789955,15.34578)"
     id="media-playback-stop">
    <rect
       id="rect15"
       fill-opacity="0"
       height="22"
       width="22"
       y="-26"
       x="48" />
    <path
       sodipodi:nodetypes="sssssssss"
       id="path17"
       fill="currentColor"
       d="m 54.000099,5.0000826 c -0.554,0 -0.999999,0.446 -1,1 l -1.6e-5,10.0001814 c -10e-7,0.554 0.446,1 1,1 h 10.000198 c 0.554,0 1.000001,-0.446 1,-1 l -1.6e-5,-10.0001814 c -10e-7,-0.554 -0.446,-1 -1,-1 z"
       transform="translate(0,-26)"
       class="ColorScheme-Text" />
  </g>
  <g
     id="media-playback-playing"
     transform="matrix(0.26458,0,0,0.26458,5.8207887,6.08534)">
    <rect
       x="0.00021085"
       y="-23"
       width="22"
       height="22"
       fill-opacity="0"
       id="rect10-6" />
    <path
       fill="currentColor"
       class="ColorScheme-Text"
       transform="translate(-25.002,-23)"
       d="m 35.992,2 a 9,9 0 0 0 -8.9902,9 9,9 0 0 0 9,9 9,9 0 0 0 9,-9 9,9 0 0 0 -9,-9 9,9 0 0 0 -0.0098,0 z m -0.08594,2 a 7,7 0 0 1 0.002,0 7,7 0 0 1 0.09375,0 7,7 0 0 1 7,7 7,7 0 0 1 -7,7 7,7 0 0 1 -7,-7 7,7 0 0 1 6.9043,-7 z m -1.3477,3.8027 C 34.39739,7.82265 34.26379,7.892585 34.15602,8.01364 34.04826,8.1347 33.99391,8.27712 33.99391,8.43942 v 5.1211 c 0,0.1623 0.05436,0.30472 0.16211,0.42578 0.10776,0.12106 0.24138,0.19098 0.40234,0.21094 0.16097,0.01996 0.30705,-0.01563 0.44141,-0.10742 l 3.7148,-2.5605 c 0.1184,-0.08115 0.20087,-0.19181 0.24609,-0.32617 0.04524,-0.13569 0.04524,-0.26992 0,-0.4043 -0.04524,-0.13436 -0.12706,-0.2437 -0.24414,-0.32617 l -3.7168,-2.5625 C 34.8658,7.817058 34.71884,7.78236 34.55831,7.80276 Z"
       id="path12-7" />
  </g>
  <g
     id="media-playback-paused"
     transform="matrix(0.26458,0,0,0.26458,-6.7536694e-5,1.75e-5)">
    <rect
       x="0.00021085"
       y="3.0110999e-05"
       width="22"
       height="22"
       fill-opacity="0"
       id="rect5-3" />
    <path
       class="ColorScheme-Text"
       d="m 10.99,2 a 9,9 0 0 0 -8.9902,9 9,9 0 0 0 9,9 9,9 0 0 0 9,-9 9,9 0 0 0 -9,-9 9,9 0 0 0 -0.0098,0 z m -0.08398,2 a 7,7 0 0 1 0.09375,0 7,7 0 0 1 7,7 7,7 0 0 1 -7,7 7,7 0 0 1 -7,-7 7,7 0 0 1 6.9062,-7 z m -1.9062,4 c -0.554,0 -1,0.446 -1,1 v 4 c 0,0.554 0.446,1 1,1 0.554,0 1,-0.446 1,-1 V 9 c 0,-0.554 -0.446,-1 -1,-1 z m 4,0 c -0.554,0 -1,0.446 -1,1 v 4 c 0,0.554 0.446,1 1,1 0.554,0 1,-0.446 1,-1 V 9 c 0,-0.554 -0.446,-1 -1,-1 z"
       fill="currentColor"
       id="path7-5" />
  </g>
  <g
     id="media-playback-stopped"
     transform="matrix(0.26458,0,0,0.26458,-1.0581392,6.879115)">
    <rect
       x="48"
       y="-26"
       width="22"
       height="22"
       fill-opacity="0"
       id="rect15-2" />
    <path
       class="ColorScheme-Text"
       transform="translate(0,-26)"
       d="m 58.99,2 a 9,9 0 0 0 -8.9902,9 9,9 0 0 0 9,9 9,9 0 0 0 9,-9 9,9 0 0 0 -9,-9 9,9 0 0 0 -0.0098,0 z m -0.08594,2 a 7,7 0 0 1 0.002,0 7,7 0 0 1 0.09371,0 7,7 0 0 1 7,7 7,7 0 0 1 -7,7 7,7 0 0 1 -7,-7 7,7 0 0 1 6.9043,-7 z m -1.9043,4 c -0.554,0 -1,0.446 -1,1 v 4 c 0,0.554 0.446,1 1,1 h 4 c 0.554,0 1,-0.446 1,-1 V 9 c 0,-0.554 -0.446,-1 -1,-1 z"
       fill="currentColor"
       id="path17-9" />
  </g>
  <g
     id="media-playback-start"
     transform="matrix(0.26458,0,0,0.26458,-1.9411694e-5,14.552088)">
    <rect
       x="0.00021085"
       y="-23"
       width="22"
       height="22"
       fill-opacity="0"
       id="rect10-7" />
    <path
       class="ColorScheme-Text"
       d="m 32.55788,4.8027246 c -0.16097,0.01995 -0.29457,0.089885 -0.40234,0.21094 -0.10776,0.12106 -0.16211,0.26348 -0.16211,0.42578 l -2.5e-5,11.1214744 c -10e-7,0.1623 0.05436,0.30472 0.16211,0.42578 0.10776,0.12106 0.24138,0.19098 0.40234,0.21094 0.16097,0.01996 0.30705,-0.01563 0.44141,-0.10742 l 7.715163,-5.560899 c 0.1184,-0.08115 0.20087,-0.19181 0.24609,-0.32617 0.04524,-0.13569 0.04524,-0.26992 0,-0.4043 -0.04524,-0.13436 -0.12706,-0.2437 -0.24414,-0.32617 L 32.99924,4.9102046 c -0.13392,-0.093122 -0.28088,-0.12782 -0.44141,-0.10742 z"
       fill="currentColor"
       id="path12-0"
       sodipodi:nodetypes="ccsssscccscccc"
       transform="translate(-25.002,-23)" />
  </g>
  <g
     transform="translate(11.112592,7.1437781)"
     id="media-playback-pause">
    <rect
       id="rect5"
       fill-opacity="0"
       height="5.8207598"
       width="5.8207598"
       y="1.3229219"
       x="0.52920514"
       style="stroke-width:0.26458" />
    <path
       id="rect1053"
       style="opacity:1"
       d="m 10,10 c -0.5539998,0 -1,0.446 -1,1 v 10 c 0,0.554 0.4460002,1 1,1 h 1 c 0.554,0 1,-0.446 1,-1 V 11 c 0,-0.554 -0.446,-1 -1,-1 z m 5,0 c -0.554,0 -1,0.446 -1,1 v 10 c 0,0.554 0.446,1 1,1 h 1 c 0.554,0 1,-0.446 1,-1 V 11 c 0,-0.554 -0.446,-1 -1,-1 z"
       fill="currentColor"
       class="ColorScheme-Text"
       transform="matrix(0.26458437,0,0,0.26458437,-1.175e-5,0)" />
  </g>
  <g
     id="media-record"
     transform="matrix(0.26458,0,0,0.26458,-1.8517829,8.4666884)">
    <rect
       x="73"
       y="4.3869e-05"
       width="22"
       height="22"
       fill-opacity="0"
       id="rect20-6" />
    <path
       style="stroke-width:0.874982"
       sodipodi:nodetypes="ccssccc"
       class="ColorScheme-Text"
       d="m 83.893845,4.0000181 c -3.824566,0.057853 -6.89453,3.1749643 -6.894093,6.9999679 0,3.865975 3.133992,6.999968 6.999968,6.999968 3.865976,0 6.999968,-3.133993 6.999968,-6.999968 0,-3.8659756 -3.133992,-6.9999679 -6.999968,-6.9999679 -0.03532,-2.673e-4 -0.07064,-2.673e-4 -0.105962,0 z"
       fill="currentColor"
       id="path22-1" />
  </g>
  <g
     id="media-seek-backward"
     transform="matrix(-0.26458,0,0,0.26458,5.8208043,21.960402)">
    <rect
       x="0.00021085"
       y="-23"
       width="22"
       height="22"
       fill-opacity="0"
       id="rect30-2" />
    <path
       sodipodi:nodetypes="cccccccsssccssssccccsccc"
       class="ColorScheme-Text"
       transform="matrix(-1,0,0,1,120,-23)"
       d="m 108.4375,6.8027516 c -0.16052,-0.020399 -0.30748,0.0143 -0.4414,0.10742 l -4.7172,3.5624484 c -0.11708,0.08247 -0.1989,0.19181 -0.24414,0.32617 -0.0452,0.13438 -0.0452,0.2686 0,0.4043 0.0452,0.13436 0.12769,0.24502 0.24609,0.32617 l 4.7152,3.56086 c 0.13435,0.0918 0.28044,0.12738 0.4414,0.10742 0.16097,-0.01996 0.29459,-0.08988 0.40235,-0.21094 0.10775,-0.12106 0.16211,-0.26348 0.16211,-0.42578 v -2.53556 l 3.99413,3.06486 c 0.13435,0.0918 0.28044,0.12738 0.4414,0.10742 0.16097,-0.01996 0.29459,-0.08988 0.40235,-0.21094 0.10775,-0.12106 0.16211,-0.26348 0.16211,-0.42578 V 7.4394116 c 0,-0.1623 -0.0544,-0.30472 -0.16211,-0.42578 -0.10777,-0.12105 -0.24138,-0.19099 -0.40235,-0.21094 -0.16052,-0.020399 -0.30748,0.0143 -0.4414,0.10742 L 109.00191,9.97456 V 7.4394116 c 0,-0.1623 -0.0544,-0.30472 -0.16211,-0.42578 -0.10777,-0.12105 -0.24138,-0.19099 -0.40235,-0.21094 z"
       fill="currentColor"
       id="path32-0" />
  </g>
  <g
     transform="translate(-69.850277,12.17088)"
     id="media-playlist-shuffle">
    <rect
       style="opacity:0.003"
       id="rect932-9-8-8-7"
       width="5.8208547"
       height="5.8208547"
       x="69.850266"
       y="10.84796" />
    <path
       d="m 74.232958,12.002416 c -0.04259,0.0053 -0.07794,0.02378 -0.106452,0.05581 -0.02851,0.03203 -0.04289,0.06971 -0.04289,0.112655 v 0.530202 h -0.529171 v 5.16e-4 c -0.05175,-7e-6 -0.104087,2.1e-5 -0.155546,0 -0.198756,7.94e-4 -0.375422,0.09276 -0.496612,0.233061 -0.04589,0.05272 -0.09491,0.110839 -0.141595,0.16485 -0.128308,0.145086 -0.263558,0.306091 -0.396877,0.460956 -0.181274,-0.211972 -0.363917,-0.426767 -0.538471,-0.627355 -0.121188,-0.140297 -0.297856,-0.232266 -0.496612,-0.233061 -0.27027,1.1e-4 -0.545433,0 -0.817007,0 -0.07271,-2.91e-4 -0.132025,0.05907 -0.132808,0.131775 -2.65e-4,0.07347 0.05934,0.133099 0.132808,0.132809 h 0.817007 c 0.128816,5.29e-4 0.24886,0.07911 0.299724,0.138493 l 0.108006,0.126091 0.45527,0.530719 c -0.1533,0.179052 -0.305166,0.353186 -0.454754,0.527619 -0.03648,0.04122 -0.07241,0.08413 -0.108522,0.126091 -0.05086,0.05937 -0.170908,0.137964 -0.299724,0.138493 h -0.155546 v 5.16e-4 h -0.661461 c -0.07347,-2.9e-4 -0.133097,0.05934 -0.132808,0.13281 7.91e-4,0.07266 0.06015,0.131031 0.132808,0.130742 h 0.661461 v 5.29e-4 c 0.05175,7e-6 0.104087,-2.2e-5 0.155546,0 0.198756,-7.94e-4 0.377411,-0.09107 0.496612,-0.233062 0.04529,-0.05395 0.111408,-0.12449 0.141595,-0.159693 l 0.396876,-0.463023 0.396877,0.462506 c 0.03495,0.04076 0.102939,0.11538 0.141595,0.160198 0.121087,0.140387 0.297856,0.232265 0.496612,0.233062 0.05146,-2.2e-5 0.103793,6e-6 0.155546,0 l 0.529169,-5.29e-4 v 0.561725 c 0,0.04294 0.01438,0.08062 0.04289,0.112655 0.02851,0.03203 0.06386,0.05053 0.106452,0.05581 0.04259,0.0053 0.08124,-0.0041 0.116791,-0.02842 l 0.718304,-0.67748 c 0.03133,-0.02147 0.05315,-0.05075 0.06511,-0.0863 0.01197,-0.0359 0.01197,-0.07142 0,-0.106971 -0.01197,-0.03555 -0.03363,-0.06448 -0.0646,-0.0863 L 74.349739,13.88293 c -0.03543,-0.02464 -0.07431,-0.03382 -0.116791,-0.02842 -0.04259,0.0053 -0.07794,0.02378 -0.106452,0.05581 -0.02851,0.03203 -0.04289,0.06971 -0.04289,0.112655 v 0.529686 l -0.529161,-5.21e-4 h -0.155546 c -0.128816,-5.29e-4 -0.248863,-0.07911 -0.299724,-0.138493 l -0.108006,-0.12609 c -0.07755,-0.08584 -0.154158,-0.176362 -0.230477,-0.264585 -0.07421,-0.08677 -0.149374,-0.173699 -0.224794,-0.262 l 0.454239,-0.530202 h 10e-4 l 0.108038,-0.126091 c 0.05086,-0.05938 0.170908,-0.137965 0.299724,-0.138494 h 0.155546 v -0.0015 h 0.529169 v 0.561208 c 0,0.04294 0.01438,0.08062 0.04289,0.112655 0.02851,0.03203 0.06386,0.05053 0.106452,0.05581 0.04259,0.0053 0.08124,-0.0041 0.116791,-0.02842 l 0.718304,-0.677481 c 0.03133,-0.02147 0.05315,-0.05075 0.06511,-0.0863 0.01197,-0.0359 0.01197,-0.07142 0,-0.10697 -0.01197,-0.03555 -0.03363,-0.06448 -0.0646,-0.0863 l -0.718822,-0.677998 c -0.03543,-0.02464 -0.07431,-0.03382 -0.116791,-0.02842 z"
       style="fill:currentColor"
       id="path12-0-5-9-7-3-5"
       class="ColorScheme-Text" />
  </g>
  <g
     transform="translate(-65.087757,10.054206)"
     id="media-playlist-repeat">
    <rect
       y="12.964635"
       x="70.9086"
       height="5.8208547"
       width="5.8208547"
       id="rect932-9-8-8-7-3"
       style="opacity:0.003" />
    <path
       class="ColorScheme-Text"
       transform="matrix(0.26458437,0,0,0.26458437,1.058327,-3.7041807)"
       d="m 276.56445,66.363281 c -0.16097,0.02003 -0.29458,0.08988 -0.40234,0.210938 C 276.05436,66.695277 276,66.837689 276,67 v 1.998047 L 269.88281,69 c -1.58877,0.01087 -2.88086,1.307188 -2.88086,2.898438 v 1.603515 c -0.001,0.274631 0.21953,0.498736 0.49414,0.501953 0.27767,0.0011 0.50305,-0.22428 0.50196,-0.501953 v -1.603515 c 0,-1.06125 0.84304,-1.896485 1.90429,-1.896485 H 276 v 2.119141 c 0,0.162292 0.0544,0.304704 0.16211,0.425781 0.10775,0.121058 0.24137,0.190982 0.40234,0.210937 0.16097,0.02003 0.30704,-0.0155 0.44141,-0.107421 l 2.71484,-2.560547 c 0.11842,-0.08115 0.20089,-0.19181 0.2461,-0.326172 0.0452,-0.135685 0.0452,-0.269932 0,-0.404297 -0.0452,-0.134362 -0.12709,-0.243703 -0.24414,-0.326172 l -2.7168,-2.5625 c -0.13391,-0.09313 -0.28085,-0.127831 -0.44141,-0.107422 z M 282.49609,73 c -0.27461,0.0032 -0.49523,0.227322 -0.49414,0.501953 L 282,75 h -0.008 c 0.002,0.03439 0.01,0.06675 0.01,0.101562 0,1.06125 -0.84304,1.896485 -1.90429,1.896485 -0.0336,0 -0.0645,-0.0079 -0.0977,-0.0098 V 77 h -6 v -2.123047 c 0,-0.162292 -0.0544,-0.304704 -0.16211,-0.425781 -0.10775,-0.121058 -0.24137,-0.190982 -0.40234,-0.210938 -0.16097,-0.02003 -0.30704,0.01551 -0.44141,0.107422 l -2.71484,2.560547 c -0.11842,0.08115 -0.20089,0.19181 -0.2461,0.326172 -0.0452,0.135685 -0.0452,0.269931 0,0.404297 0.0452,0.134362 0.12709,0.243703 0.24414,0.326172 l 2.7168,2.5625 c 0.13391,0.09313 0.28085,0.127831 0.44141,0.107422 0.16097,-0.02003 0.29458,-0.08988 0.40234,-0.210938 C 273.94564,80.30277 274,80.160358 274,79.998047 V 77.996094 L 280,78 v -0.0078 c 0.0265,8.99e-4 0.0514,0.0074 0.0781,0.0078 h 0.0391 c 1.58876,-0.01096 2.88086,-1.307187 2.88086,-2.898438 0,-0.03477 -0.009,-0.06713 -0.01,-0.101562 H 283 l -0.002,-1.498047 C 282.99929,73.22428 282.77376,72.998909 282.49609,73 Z"
       style="fill:currentColor"
       id="path12-0-5-9-7-3-5-0" />
  </g>
  <g
     transform="matrix(0.26458,0,0,0.26458,5.8207887,21.960402)"
     id="media-seek-forward">
    <rect
       id="rect30-2-2"
       fill-opacity="0"
       height="22"
       width="22"
       y="-23"
       x="0.00021085" />
    <path
       id="path32-0-6"
       fill="currentColor"
       d="m 108.4375,6.8027516 c -0.16052,-0.020399 -0.30748,0.0143 -0.4414,0.10742 l -4.7172,3.5624484 c -0.11708,0.08247 -0.1989,0.19181 -0.24414,0.32617 -0.0452,0.13438 -0.0452,0.2686 0,0.4043 0.0452,0.13436 0.12769,0.24502 0.24609,0.32617 l 4.7152,3.56086 c 0.13435,0.0918 0.28044,0.12738 0.4414,0.10742 0.16097,-0.01996 0.29459,-0.08988 0.40235,-0.21094 0.10775,-0.12106 0.16211,-0.26348 0.16211,-0.42578 v -2.53556 l 3.99413,3.06486 c 0.13435,0.0918 0.28044,0.12738 0.4414,0.10742 0.16097,-0.01996 0.29459,-0.08988 0.40235,-0.21094 0.10775,-0.12106 0.16211,-0.26348 0.16211,-0.42578 V 7.4394116 c 0,-0.1623 -0.0544,-0.30472 -0.16211,-0.42578 -0.10777,-0.12105 -0.24138,-0.19099 -0.40235,-0.21094 -0.16052,-0.020399 -0.30748,0.0143 -0.4414,0.10742 L 109.00191,9.97456 V 7.4394116 c 0,-0.1623 -0.0544,-0.30472 -0.16211,-0.42578 -0.10777,-0.12105 -0.24138,-0.19099 -0.40235,-0.21094 z"
       transform="matrix(-1,0,0,1,120,-23)"
       class="ColorScheme-Text"
       sodipodi:nodetypes="cccccccsssccssssccccsccc" />
  </g>
  <g
     transform="matrix(-0.26458,0,0,0.26458,62.441061,15.875054)"
     id="media-skip-backward">
    <rect
       id="rect40-4-1"
       fill-opacity="0"
       height="22"
       width="22"
       y="3.0518e-05"
       x="170" />
    <path
       id="path42-9-7"
       fill="currentColor"
       d="m 162.43776,6.8026406 c -0.16052,-0.020399 -0.30748,0.0143 -0.4414,0.10742 L 157.2793,10.47262 c -0.11708,0.08247 -0.19894,0.19181 -0.24414,0.32617 -0.0452,0.13438 -0.0452,0.2686 0,0.4043 0.0452,0.13436 0.12769,0.24502 0.24609,0.32617 l 4.71509,3.560749 c 0.13436,0.0918 0.28043,0.12738 0.4414,0.10742 0.16097,-0.01996 0.2946,-0.08988 0.40235,-0.21094 0.1078,-0.12106 0.16211,-0.263481 0.16211,-0.42578 l -3e-5,-7.1214084 c 0,-0.1622975 -0.0543,-0.30472 -0.16211,-0.42578 -0.10777,-0.12105 -0.24138,-0.19099 -0.40235,-0.21094 z m -7.43762,0.197298 c -0.554,0 -1,0.446 -1,1 v 6.0001324 c 0,0.554 0.446,1 1,1 0.554,0 1,-0.446 1,-1 V 7.9999386 c 0,-0.554 -0.446,-1 -1,-1 z"
       transform="matrix(-1,0,0,1,339,0)"
       class="ColorScheme-Text"
       sodipodi:nodetypes="cccscccsssssccsssssss" />
  </g>
  <g
     id="media-skip-forward"
     transform="matrix(0.26458,0,0,0.26458,-27.516043,15.875054)">
    <rect
       x="170"
       y="3.0518e-05"
       width="22"
       height="22"
       fill-opacity="0"
       id="rect40-4-1-7" />
    <path
       sodipodi:nodetypes="cccscccsssssccsssssss"
       class="ColorScheme-Text"
       transform="matrix(-1,0,0,1,339,0)"
       d="m 162.43776,6.8026406 c -0.16052,-0.020399 -0.30748,0.0143 -0.4414,0.10742 L 157.2793,10.47262 c -0.11708,0.08247 -0.19894,0.19181 -0.24414,0.32617 -0.0452,0.13438 -0.0452,0.2686 0,0.4043 0.0452,0.13436 0.12769,0.24502 0.24609,0.32617 l 4.71509,3.560749 c 0.13436,0.0918 0.28043,0.12738 0.4414,0.10742 0.16097,-0.01996 0.2946,-0.08988 0.40235,-0.21094 0.1078,-0.12106 0.16211,-0.263481 0.16211,-0.42578 l -3e-5,-7.1214084 c 0,-0.1622975 -0.0543,-0.30472 -0.16211,-0.42578 -0.10777,-0.12105 -0.24138,-0.19099 -0.40235,-0.21094 z m -7.43762,0.197298 c -0.554,0 -1,0.446 -1,1 v 6.0001324 c 0,0.554 0.446,1 1,1 0.554,0 1,-0.446 1,-1 V 7.9999386 c 0,-0.554 -0.446,-1 -1,-1 z"
       fill="currentColor"
       id="path42-9-7-2" />
  </g>
  <g
     id="media-mount"
     transform="matrix(0,0.26458,-0.26458,0,25.929169,-44.9786)">
    <rect
       x="170"
       y="3.0518e-05"
       width="22"
       height="22"
       fill-opacity="0"
       id="rect45-6" />
    <path
       sodipodi:nodetypes="cscccssscscccccsssssss"
       class="ColorScheme-Text"
       transform="rotate(90,194.5,-2.4991)"
       d="m 208.00001,4.7558644 c -0.0845,0 -0.16806,0.014769 -0.25195,0.042969 -0.16777,0.0564 -0.30328,0.15849 -0.40625,0.30469 l -5.19964,6.6404166 c -0.11628,0.16722 -0.16024,0.35035 -0.13477,0.55078 0.0249,0.201 0.11252,0.36738 0.26367,0.50195 0.15116,0.13456 0.3286,0.20312 0.53125,0.20312 h 10.39528 c 0.20265,0 0.38008,-0.06846 0.53125,-0.20312 0.15116,-0.13454 0.2407,-0.30095 0.26562,-0.50195 0.0249,-0.20099 -0.0221,-0.38301 -0.13672,-0.55078 l -5.19764,-6.6385166 c -0.10133,-0.14784 -0.23848,-0.25018 -0.40625,-0.30664 -0.0847,-0.0282 -0.1694,-0.042969 -0.25391,-0.042969 z m -5.00115,10.2449536 c -0.55398,0 -1,0.446 -1,1 0,0.554 0.44602,1 1,1 h 10.00017 c 0.55398,0 1,-0.446 1,-1 0,-0.554 -0.44602,-1 -1,-1 z"
       fill="currentColor"
       id="path47-1" />
  </g>
  <g
     transform="matrix(0,-0.26458,0.26458,0,25.929249,50.79936)"
     id="media-eject">
    <rect
       id="rect45-6-4"
       fill-opacity="0"
       height="22"
       width="22"
       y="3.0518e-05"
       x="170" />
    <path
       id="path47-1-9"
       fill="currentColor"
       d="m 208.00001,4.7558644 c -0.0845,0 -0.16806,0.014769 -0.25195,0.042969 -0.16777,0.0564 -0.30328,0.15849 -0.40625,0.30469 l -5.19964,6.6404166 c -0.11628,0.16722 -0.16024,0.35035 -0.13477,0.55078 0.0249,0.201 0.11252,0.36738 0.26367,0.50195 0.15116,0.13456 0.3286,0.20312 0.53125,0.20312 h 10.39528 c 0.20265,0 0.38008,-0.06846 0.53125,-0.20312 0.15116,-0.13454 0.2407,-0.30095 0.26562,-0.50195 0.0249,-0.20099 -0.0221,-0.38301 -0.13672,-0.55078 l -5.19764,-6.6385166 c -0.10133,-0.14784 -0.23848,-0.25018 -0.40625,-0.30664 -0.0847,-0.0282 -0.1694,-0.042969 -0.25391,-0.042969 z m -5.00115,10.2449536 c -0.55398,0 -1,0.446 -1,1 0,0.554 0.44602,1 1,1 h 10.00017 c 0.55398,0 1,-0.446 1,-1 0,-0.554 -0.44602,-1 -1,-1 z"
       transform="rotate(90,194.5,-2.4991)"
       class="ColorScheme-Text"
       sodipodi:nodetypes="cscccssscscccccsssssss" />
  </g>
</svg>
