<?xml version="1.0" encoding="UTF-8" standalone="no"?>
<svg
   xmlns:dc="http://purl.org/dc/elements/1.1/"
   xmlns:cc="http://creativecommons.org/ns#"
   xmlns:rdf="http://www.w3.org/1999/02/22-rdf-syntax-ns#"
   xmlns:svg="http://www.w3.org/2000/svg"
   xmlns="http://www.w3.org/2000/svg"
   xmlns:sodipodi="http://sodipodi.sourceforge.net/DTD/sodipodi-0.dtd"
   xmlns:inkscape="http://www.inkscape.org/namespaces/inkscape"
   inkscape:version="1.0 (1.0+r73+1)"
   sodipodi:docname="notifications.svg"
   id="svg49"
   viewBox="0 0 22 22"
   version="1.1">
  <metadata
     id="metadata53">
    <rdf:RDF>
      <cc:Work
         rdf:about="">
        <dc:format>image/svg+xml</dc:format>
        <dc:type
           rdf:resource="http://purl.org/dc/dcmitype/StillImage" />
        <dc:title />
      </cc:Work>
    </rdf:RDF>
  </metadata>
  <sodipodi:namedview
     inkscape:current-layer="svg49"
     inkscape:window-maximized="1"
     inkscape:window-y="24"
     inkscape:window-x="0"
     inkscape:cy="36.26567"
     inkscape:cx="21.11582"
     inkscape:zoom="4"
     showgrid="true"
     id="namedview51"
     inkscape:window-height="966"
     inkscape:window-width="1920"
     inkscape:pageshadow="2"
     inkscape:pageopacity="0"
     guidetolerance="10"
     gridtolerance="10"
     objecttolerance="10"
     borderopacity="1"
     bordercolor="#666666"
     pagecolor="#ffffff"
     inkscape:document-rotation="0"
     inkscape:snap-bbox="true"
     inkscape:bbox-nodes="true"
     inkscape:snap-object-midpoints="true">
    <inkscape:grid
       id="grid878"
       type="xygrid" />
  </sodipodi:namedview>
  <defs
     id="defs3">
    <style
       type="text/css"
       id="current-color-scheme">.ColorScheme-Text { color:#363636; }</style>
  </defs>
  <path
     fill="currentColor"
     class="ColorScheme-Text"
     d="m-18 23 2-2 2 2z"
     id="expander-bottom" />
  <path
     fill="currentColor"
     class="ColorScheme-Text"
     d="m-18 17 2 2 2-2z"
     id="expander-top" />
  <path
     fill="currentColor"
     class="ColorScheme-Text"
     d="m-13 18-2 2 2 2z"
     id="expander-right" />
  <path
     fill="currentColor"
     class="ColorScheme-Text"
     d="m-19 18 2 2-2 2z"
     id="expander-left" />
  <g
     fill="currentColor"
     class="ColorScheme-Text"
     id="notifications">
    <rect
       id="rect9"
       opacity="0"
       ry="0"
       height="22"
       width="22" />
    <path
       sodipodi:nodetypes="cccccccccccccccccccc"
       d="M 11,3 C 10.447715,3 10,3.4477153 10,4 7.7839999,4 6,5.7840001 6,8 v 6 c 0,0.554 -0.446,1 -1,1 -0.554,0 -1,0.446 -1,1 0,0.554 0.446,1 1,1 h 1 10 1 c 0.554,0 1,-0.446 1,-1 0,-0.554 -0.446,-1 -1,-1 -0.554,0 -1,-0.446 -1,-1 V 8 C 16,5.784 14.216,4 12,4 12,3.4477153 11.552285,3 11,3 Z M 8.9960938,18 c 0,1.3346 1.0009531,2.001953 2.0019532,2.001953 C 11.999047,20.001953 13,19.33468 13,18 Z"
       style="opacity:1"
       id="path11" />
  </g>
  <g
     id="notifications-disabled"
     class="ColorScheme-Text"
     fill="currentColor"
     transform="translate(0,22)">
    <rect
       width="22"
       height="22"
       ry="0"
       opacity="0"
       id="rect887"
       x="0"
       y="0"
       style="opacity:0.003" />
    <path
       id="path889"
       style="opacity:0.25"
       d="M 11 25 C 10.447715 25 10 25.447715 10 26 C 9.2737656 26 8.6019954 26.203336 8.0195312 26.542969 L 16 34.523438 L 16 30 C 16 27.784 14.216 26 12 26 C 12 25.447715 11.552285 25 11 25 z M 6.046875 29.521484 C 6.0258635 29.679116 6 29.836173 6 30 L 6 36 C 6 36.554 5.554 37 5 37 C 4.446 37 4 37.446 4 38 C 4 38.554 4.446 39 5 39 L 6 39 L 15.523438 39 L 6.046875 29.521484 z M 8.9960938 40 C 8.9960938 41.3346 9.9970467 42.001953 10.998047 42.001953 C 11.999047 42.001953 13 41.33468 13 40 L 8.9960938 40 z "
       transform="translate(0,-22)" />
    <g
       id="g935"
       style="opacity:1">
      <path
         id="path937"
         style="color:#363636;font-style:normal;font-variant:normal;font-weight:normal;font-stretch:normal;font-size:medium;line-height:normal;font-family:sans-serif;font-variant-ligatures:normal;font-variant-position:normal;font-variant-caps:normal;font-variant-numeric:normal;font-variant-alternates:normal;font-variant-east-asian:normal;font-feature-settings:normal;font-variation-settings:normal;text-indent:0;text-align:start;text-decoration:none;text-decoration-line:none;text-decoration-style:solid;text-decoration-color:#000000;letter-spacing:normal;word-spacing:normal;text-transform:none;writing-mode:lr-tb;direction:ltr;text-orientation:mixed;dominant-baseline:auto;baseline-shift:baseline;text-anchor:start;white-space:normal;shape-padding:0;shape-margin:0;inline-size:0;clip-rule:nonzero;display:inline;overflow:visible;visibility:visible;isolation:auto;mix-blend-mode:normal;color-interpolation:sRGB;color-interpolation-filters:linearRGB;solid-color:#000000;solid-opacity:1;vector-effect:none;fill:#363636;fill-opacity:1;fill-rule:nonzero;stroke:none;stroke-width:0.5;stroke-linecap:round;stroke-linejoin:miter;stroke-miterlimit:4;stroke-dasharray:none;stroke-dashoffset:0;stroke-opacity:1.0;color-rendering:auto;image-rendering:auto;shape-rendering:auto;text-rendering:auto;enable-background:accumulate;stop-color:#000000;stop-opacity:1;"
         d="M 4.4648438 24.75 C 4.2782656 24.759001 4.100603 24.838388 3.96875 24.970703 C 3.6780246 25.261491 3.6780246 25.738509 3.96875 26.029297 L 17.96875 40.03125 C 18.259538 40.321976 18.740462 40.321976 19.03125 40.03125 C 19.321976 39.740462 19.321976 39.259538 19.03125 38.96875 L 5.03125 24.970703 C 4.8822154 24.821196 4.6757243 24.740357 4.4648438 24.75 z "
         transform="translate(0,-22)" />
    </g>
  </g>
  <circle
     style="opacity:0.003;fill:#363636;fill-opacity:1;stroke-width:2;stroke-linecap:round;stroke-linejoin:round;stroke-opacity:0.07;paint-order:stroke fill markers"
     id="path895"
     cx="4.5"
     cy="25.5"
     r="0.5" />
  <circle
     style="opacity:0.003;fill:#363636;fill-opacity:1;stroke-width:2;stroke-linecap:round;stroke-linejoin:round;stroke-opacity:0.07;paint-order:stroke fill markers"
     id="path897"
     cx="18.5"
     cy="40.5"
     r="0.5" />
</svg>
