<?xml version="1.0" encoding="UTF-8" standalone="no"?>
<svg
   xmlns:dc="http://purl.org/dc/elements/1.1/"
   xmlns:cc="http://creativecommons.org/ns#"
   xmlns:rdf="http://www.w3.org/1999/02/22-rdf-syntax-ns#"
   xmlns:svg="http://www.w3.org/2000/svg"
   xmlns="http://www.w3.org/2000/svg"
   xmlns:xlink="http://www.w3.org/1999/xlink"
   xmlns:sodipodi="http://sodipodi.sourceforge.net/DTD/sodipodi-0.dtd"
   xmlns:inkscape="http://www.inkscape.org/namespaces/inkscape"
   id="svg4306"
   width="64"
   height="32"
   version="1.1"
   style="enable-background:new"
   sodipodi:docname="keepabove.svg"
   inkscape:version="1.0 (1.0+r73+1)"
   inkscape:export-filename="/home/don/.local/share/aurorae/themes/BigSur/closeTest.png"
   inkscape:export-xdpi="96"
   inkscape:export-ydpi="96">
  <metadata
     id="metadata40">
    <rdf:RDF>
      <cc:Work
         rdf:about="">
        <dc:format>image/svg+xml</dc:format>
        <dc:type
           rdf:resource="http://purl.org/dc/dcmitype/StillImage" />
        <dc:title></dc:title>
      </cc:Work>
    </rdf:RDF>
  </metadata>
  <defs
     id="defs38" />
  <sodipodi:namedview
     inkscape:snap-object-midpoints="true"
     inkscape:document-rotation="0"
     pagecolor="#f3f3f3"
     bordercolor="#666666"
     borderopacity="1"
     objecttolerance="10"
     gridtolerance="10"
     guidetolerance="10"
     inkscape:pageopacity="0"
     inkscape:pageshadow="2"
     inkscape:window-width="1920"
     inkscape:window-height="1000"
     id="namedview36"
     showgrid="true"
     inkscape:snap-bbox="true"
     inkscape:bbox-nodes="true"
     inkscape:zoom="8.0000004"
     inkscape:cx="41.763383"
     inkscape:cy="-18.352384"
     inkscape:window-x="0"
     inkscape:window-y="0"
     inkscape:window-maximized="1"
     inkscape:current-layer="svg4306"
     fit-margin-top="0"
     fit-margin-left="0"
     fit-margin-right="0"
     fit-margin-bottom="0">
    <inkscape:grid
       type="xygrid"
       id="grid865"
       originx="0"
       originy="0" />
    <inkscape:grid
       id="grid860"
       type="xygrid"
       spacingx="0.5"
       spacingy="0.5"
       originx="0"
       originy="0" />
  </sodipodi:namedview>
  <style
     type="text/css"
     id="current-color-scheme">
        .ColorScheme-Text {
            color:#232629;
        }
        .ColorScheme-ButtonFocus{
            color:#3daee9;
        }
            .ColorScheme-NegativeText {
            color:#da4453;
        }
    </style>
  <g
     id="buttonBase">
    <rect
       style="opacity:0.003;fill:#000000;fill-opacity:1;stroke:none;stroke-width:1.5;stroke-linecap:round;stroke-miterlimit:4;stroke-dasharray:none;stroke-opacity:1"
       id="rect948"
       width="16"
       height="16"
       x="0"
       y="-16" />
    <circle
       style="fill:#b143e4;fill-opacity:1;stroke:none;stroke-width:4"
       id="path859-5"
       cx="8"
       cy="-8"
       r="6" />
    <circle
       r="5"
       cy="-8"
       cx="8"
       id="circle867"
       style="fill:#c858fd;fill-opacity:1;stroke:none;stroke-width:3.33333" />
  </g>
  <g
     transform="translate(10.999998,-16.000002)"
     style="enable-background:new"
     id="buttonSymbol">
    <path
       sodipodi:nodetypes="cccccccc"
       id="path1083"
       d="m 24.011719,5 c -0.148669,-0.00335 -0.291116,0.059641 -0.388672,0.171875 l -3.25,3.75 C 20.091807,9.2453819 20.321337,9.7496328 20.75,9.75 h 6.5 c 0.428663,-3.672e-4 0.658193,-0.5046181 0.376953,-0.828125 l -3.25,-3.75 C 24.284768,5.0658077 24.152206,5.0034257 24.011719,5 Z"
       style="color:#000000;font-style:normal;font-variant:normal;font-weight:normal;font-stretch:normal;font-size:medium;line-height:normal;font-family:sans-serif;font-variant-ligatures:normal;font-variant-position:normal;font-variant-caps:normal;font-variant-numeric:normal;font-variant-alternates:normal;font-variant-east-asian:normal;font-feature-settings:normal;font-variation-settings:normal;text-indent:0;text-align:start;text-decoration:none;text-decoration-line:none;text-decoration-style:solid;text-decoration-color:#000000;letter-spacing:normal;word-spacing:normal;text-transform:none;writing-mode:lr-tb;direction:ltr;text-orientation:mixed;dominant-baseline:auto;baseline-shift:baseline;text-anchor:start;white-space:normal;shape-padding:0;shape-margin:0;inline-size:0;clip-rule:nonzero;display:inline;overflow:visible;visibility:visible;opacity:1;isolation:auto;mix-blend-mode:normal;color-interpolation:sRGB;color-interpolation-filters:linearRGB;solid-color:#000000;solid-opacity:1;vector-effect:none;fill-opacity:1;fill-rule:nonzero;stroke:none;stroke-width:1px;stroke-linecap:round;stroke-linejoin:round;stroke-miterlimit:4;stroke-dasharray:none;stroke-dashoffset:0;stroke-opacity:1;color-rendering:auto;image-rendering:auto;shape-rendering:auto;text-rendering:auto;enable-background:new;stop-color:#000000;stop-opacity:1" />
  </g>
  <g
     transform="translate(16)"
     id="buttonBaseInactive">
    <rect
       y="-16"
       x="0"
       height="16"
       width="16"
       id="rect957"
       style="opacity:0.003;fill:#000000;fill-opacity:1;stroke:none;stroke-width:1.5;stroke-linecap:round;stroke-miterlimit:4;stroke-dasharray:none;stroke-opacity:1" />
    <circle
       r="6"
       cy="-8"
       cx="8"
       id="circle961"
       style="opacity:0.1;fill:#000000;fill-opacity:1;stroke:none;stroke-width:4" />
    <path
       transform="translate(-16)"
       d="M 24 -14 A 6 6 0 0 0 18 -8 A 6 6 0 0 0 24 -2 A 6 6 0 0 0 30 -8 A 6 6 0 0 0 24 -14 z M 24 -13 A 5 5 0 0 1 29 -8 A 5 5 0 0 1 24 -3 A 5 5 0 0 1 19 -8 A 5 5 0 0 1 24 -13 z "
       style="opacity:0.1;fill:#000000;fill-opacity:1;stroke:none;stroke-width:4"
       id="circle860" />
  </g>
  <use
     height="100%"
     width="100%"
     transform="translate(0,16)"
     id="active-center"
     xlink:href="#buttonBase"
     y="0"
     x="0" />
  <g
     id="inactive-center">
    <use
       x="0"
       y="0"
       xlink:href="#buttonBaseInactive"
       id="use927"
       transform="translate(-16,32)"
       width="100%"
       height="100%" />
  </g>
  <g
     id="hover-center">
    <use
       x="0"
       y="0"
       xlink:href="#buttonBase"
       id="use969"
       transform="translate(16,16)"
       width="100%"
       height="100%" />
    <use
       style="fill:#56017e;fill-opacity:1;opacity:0.7"
       x="0"
       y="0"
       xlink:href="#buttonSymbol"
       id="use971"
       transform="translate(-11,16)"
       width="100%"
       height="100%" />
  </g>
  <use
     height="100%"
     width="100%"
     transform="translate(0,16)"
     id="hover-inactive-center"
     xlink:href="#hover-center"
     y="0"
     x="0" />
  <g
     id="buttonTint">
    <path
       id="path1035"
       style="opacity:0.003;fill:#000000;fill-opacity:1;stroke:none;stroke-width:4.66667;enable-background:new"
       d="m 54,-8 a 7,7 0 0 1 -7,7 7,7 0 0 1 -7,-7 7,7 0 0 1 7,-7 7,7 0 0 1 7,7" />
    <path
       d="m 53,-8 a 6,6 0 0 1 -6,6 6,6 0 0 1 -6,-6 6,6 0 0 1 6,-6 6,6 0 0 1 6,6"
       style="opacity:0.5;fill:#000000;fill-opacity:1;stroke:none;stroke-width:4;enable-background:new"
       id="path1033" />
  </g>
  <g
     id="pressed-center">
    <use
       x="0"
       y="0"
       xlink:href="#buttonBase"
       id="use994"
       transform="translate(32,16)"
       width="100%"
       height="100%" />
    <use
       style="opacity:0.7;fill:#56017e;fill-opacity:1"
       x="0"
       y="0"
       xlink:href="#buttonSymbol"
       id="use996"
       transform="translate(5,16)"
       width="100%"
       height="100%" />
  </g>
  <g
     transform="translate(0,16)"
     id="pressed-inactive-center">
    <use
       style="enable-background:new"
       height="100%"
       width="100%"
       transform="translate(16,16)"
       id="use927-5"
       xlink:href="#buttonBaseInactive"
       y="0"
       x="0" />
    <use
       style="opacity:0.5;fill:#000000;fill-opacity:1;enable-background:new"
       x="0"
       y="0"
       xlink:href="#buttonSymbol"
       id="use971-7-3"
       transform="translate(5.0000001,16)"
       width="100%"
       height="100%" />
  </g>
  <use
     height="100%"
     width="100%"
     transform="translate(32,16)"
     id="deactivated-center"
     xlink:href="#buttonBaseInactive"
     y="0"
     x="0" />
  <g
     id="deactivated-inactive-center">
    <use
       x="0"
       y="0"
       xlink:href="#buttonBaseInactive"
       id="use1045"
       transform="translate(32,32)"
       width="100%"
       height="100%" />
    <use
       x="0"
       y="0"
       xlink:href="#buttonTint"
       id="use1047"
       transform="translate(9,32)"
       width="100%"
       height="100%"
       style="opacity:0.3" />
  </g>
</svg>
