<?xml version="1.0" encoding="UTF-8" standalone="no"?>
<svg
   xmlns:dc="http://purl.org/dc/elements/1.1/"
   xmlns:cc="http://creativecommons.org/ns#"
   xmlns:rdf="http://www.w3.org/1999/02/22-rdf-syntax-ns#"
   xmlns:svg="http://www.w3.org/2000/svg"
   xmlns="http://www.w3.org/2000/svg"
   xmlns:xlink="http://www.w3.org/1999/xlink"
   xmlns:sodipodi="http://sodipodi.sourceforge.net/DTD/sodipodi-0.dtd"
   xmlns:inkscape="http://www.inkscape.org/namespaces/inkscape"
   id="svg4306"
   width="64"
   height="32"
   version="1.1"
   style="enable-background:new"
   sodipodi:docname="alldesktops.svg"
   inkscape:version="1.0 (1.0+r73+1)"
   inkscape:export-filename="/home/don/.local/share/aurorae/themes/BigSur/closeTest.png"
   inkscape:export-xdpi="96"
   inkscape:export-ydpi="96">
  <metadata
     id="metadata40">
    <rdf:RDF>
      <cc:Work
         rdf:about="">
        <dc:format>image/svg+xml</dc:format>
        <dc:type
           rdf:resource="http://purl.org/dc/dcmitype/StillImage" />
        <dc:title />
      </cc:Work>
    </rdf:RDF>
  </metadata>
  <defs
     id="defs38" />
  <sodipodi:namedview
     inkscape:document-rotation="0"
     pagecolor="#f3f3f3"
     bordercolor="#666666"
     borderopacity="1"
     objecttolerance="10"
     gridtolerance="10"
     guidetolerance="10"
     inkscape:pageopacity="0"
     inkscape:pageshadow="2"
     inkscape:window-width="1920"
     inkscape:window-height="964"
     id="namedview36"
     showgrid="true"
     inkscape:snap-bbox="true"
     inkscape:bbox-nodes="true"
     inkscape:zoom="11.313709"
     inkscape:cx="27.529711"
     inkscape:cy="-1.2716153"
     inkscape:window-x="0"
     inkscape:window-y="24"
     inkscape:window-maximized="1"
     inkscape:current-layer="buttonBaseInactive"
     fit-margin-top="0"
     fit-margin-left="0"
     fit-margin-right="0"
     fit-margin-bottom="0">
    <inkscape:grid
       type="xygrid"
       id="grid865"
       originx="0"
       originy="0" />
    <inkscape:grid
       id="grid860"
       type="xygrid"
       spacingx="0.5"
       spacingy="0.5"
       originx="0"
       originy="0" />
  </sodipodi:namedview>
  <style
     type="text/css"
     id="current-color-scheme">
        .ColorScheme-Text {
            color:#232629;
        }
        .ColorScheme-ButtonFocus{
            color:#3daee9;
        }
            .ColorScheme-NegativeText {
            color:#da4453;
        }
    </style>
  <g
     id="buttonBase">
    <rect
       style="opacity:0.003;fill:#000000;fill-opacity:1;stroke:none;stroke-width:1.5;stroke-linecap:round;stroke-miterlimit:4;stroke-dasharray:none;stroke-opacity:1"
       id="rect948"
       width="16"
       height="16"
       x="0"
       y="-16" />
    <circle
       style="fill:#14ae89;fill-opacity:1;stroke:none;stroke-width:4.56667"
       id="path859-5"
       cx="8"
       cy="-8"
       r="6.8499999" />
    <circle
       r="6"
       cy="-8"
       cx="8"
       id="circle867"
       style="fill:#02ca9d;fill-opacity:1;stroke:none;stroke-width:4" />
    <path
       d="M 8 -14 A 6 6 0 0 0 2 -8 A 6 6 0 0 0 8 -2 A 6 6 0 0 0 14 -8 A 6 6 0 0 0 8 -14 z M 8 -13.5 A 5.5 5.5 0 0 1 13.5 -8 A 5.5 5.5 0 0 1 8 -2.5 A 5.5 5.5 0 0 1 2.5 -8 A 5.5 5.5 0 0 1 8 -13.5 z "
       style="fill:#ffffff;fill-opacity:1;stroke:none;stroke-width:4;opacity:0.1"
       id="circle862" />
  </g>
  <g
     transform="translate(10.999998,-16.000002)"
     style="enable-background:new"
     id="buttonSymbol">
    <rect
       ry="3"
       rx="3"
       y="5.0000019"
       x="21.000002"
       height="6"
       width="6"
       id="rect877"
       style="opacity:1;fill-opacity:1;stroke-linecap:round;stroke-linejoin:round;paint-order:stroke fill markers" />
  </g>
  <g
     transform="translate(16)"
     id="buttonBaseInactive">
    <rect
       y="-16"
       x="0"
       height="16"
       width="16"
       id="rect957"
       style="opacity:0.003;fill:#000000;fill-opacity:1;stroke:none;stroke-width:1.5;stroke-linecap:round;stroke-miterlimit:4;stroke-dasharray:none;stroke-opacity:1" />
    <circle
       r="6.8499999"
       cy="-8"
       cx="8"
       id="circle961"
       style="opacity:0.1;fill:#000000;fill-opacity:1;stroke:none;stroke-width:4.56667" />
    <path
       d="m 8,-14.85 c -3.7831505,0 -6.85,3.066849 -6.85,6.85 0,3.7831505 3.0668495,6.85 6.85,6.85 3.783151,0 6.85,-3.0668495 6.85,-6.85 0,-3.783151 -3.066849,-6.85 -6.85,-6.85 z M 8,-14 c 3.313708,0 6,2.686292 6,6 0,3.3137085 -2.686291,6.0000001 -6,6.0000003 -3.3137087,0 -6.0000003,-2.6862916 -6.0000003,-6.0000003 2e-7,-3.313709 2.6862918,-6 6.0000003,-6 z"
       style="opacity:0.1;fill:#000000;fill-opacity:1;stroke:none;stroke-width:4.56667"
       id="circle860"
       sodipodi:nodetypes="ssssssssss" />
    <path
       id="circle862-3"
       style="opacity:0.1;fill:#ffffff;fill-opacity:1;stroke:none;stroke-width:4;enable-background:new"
       d="m 8,-14 a 6,6 0 0 0 -6,6 6,6 0 0 0 6,6 6,6 0 0 0 6,-6 6,6 0 0 0 -6,-6 z m 0,0.5 A 5.5,5.5 0 0 1 13.5,-8 5.5,5.5 0 0 1 8,-2.5 5.5,5.5 0 0 1 2.5,-8 5.5,5.5 0 0 1 8,-13.5 Z" />
  </g>
  <use
     height="100%"
     width="100%"
     transform="translate(0,16)"
     id="active-center"
     xlink:href="#buttonBase"
     y="0"
     x="0" />
  <g
     id="inactive-center">
    <use
       x="0"
       y="0"
       xlink:href="#buttonBaseInactive"
       id="use927"
       transform="translate(-16,32)"
       width="100%"
       height="100%" />
  </g>
  <g
     id="hover-center">
    <use
       x="0"
       y="0"
       xlink:href="#buttonBase"
       id="use969"
       transform="translate(16,16)"
       width="100%"
       height="100%" />
    <use
       style="fill:#01654a;fill-opacity:1;opacity:1"
       x="0"
       y="0"
       xlink:href="#buttonSymbol"
       id="use971"
       transform="translate(-11,16)"
       width="100%"
       height="100%" />
  </g>
  <use
     height="100%"
     width="100%"
     transform="translate(0,16)"
     id="hover-inactive-center"
     xlink:href="#hover-center"
     y="0"
     x="0" />
  <g
     id="buttonTint">
    <path
       id="path1035"
       style="opacity:0.003;fill:#000000;fill-opacity:1;stroke:none;stroke-width:4.66667;enable-background:new"
       d="m 54,-8 a 7,7 0 0 1 -7,7 7,7 0 0 1 -7,-7 7,7 0 0 1 7,-7 7,7 0 0 1 7,7" />
    <path
       d="M 53.85,-8 A 6.85,6.85 0 0 1 47,-1.15 6.85,6.85 0 0 1 40.15,-8 6.85,6.85 0 0 1 47,-14.85 6.85,6.85 0 0 1 53.85,-8"
       style="opacity:0.5;fill:#000000;fill-opacity:1;stroke:none;stroke-width:4.56667;enable-background:new"
       id="path1033" />
  </g>
  <g
     id="pressed-center">
    <use
       x="0"
       y="0"
       xlink:href="#buttonBase"
       id="use994"
       transform="translate(32,16)"
       width="100%"
       height="100%" />
    <use
       style="opacity:1;fill:#01654d;fill-opacity:1"
       x="0"
       y="0"
       xlink:href="#buttonSymbol"
       id="use996"
       transform="translate(5,16)"
       width="100%"
       height="100%" />
  </g>
  <g
     transform="translate(0,16)"
     id="pressed-inactive-center">
    <use
       style="enable-background:new"
       height="100%"
       width="100%"
       transform="translate(16,16)"
       id="use927-5"
       xlink:href="#buttonBaseInactive"
       y="0"
       x="0" />
    <use
       style="opacity:0.5;fill:#000000;fill-opacity:1;enable-background:new"
       x="0"
       y="0"
       xlink:href="#buttonSymbol"
       id="use971-7-3"
       transform="translate(5.0000001,16)"
       width="100%"
       height="100%" />
  </g>
  <use
     height="100%"
     width="100%"
     transform="translate(32,16)"
     id="deactivated-center"
     xlink:href="#buttonBaseInactive"
     y="0"
     x="0" />
  <g
     id="deactivated-inactive-center">
    <use
       x="0"
       y="0"
       xlink:href="#buttonBaseInactive"
       id="use1045"
       transform="translate(32,32)"
       width="100%"
       height="100%" />
    <use
       x="0"
       y="0"
       xlink:href="#buttonTint"
       id="use1047"
       transform="translate(9,32)"
       width="100%"
       height="100%"
       style="opacity:0.3" />
  </g>
</svg>
