<?xml version="1.0" encoding="UTF-8" standalone="no"?>
<svg
   xmlns:dc="http://purl.org/dc/elements/1.1/"
   xmlns:cc="http://creativecommons.org/ns#"
   xmlns:rdf="http://www.w3.org/1999/02/22-rdf-syntax-ns#"
   xmlns:svg="http://www.w3.org/2000/svg"
   xmlns="http://www.w3.org/2000/svg"
   xmlns:xlink="http://www.w3.org/1999/xlink"
   xmlns:sodipodi="http://sodipodi.sourceforge.net/DTD/sodipodi-0.dtd"
   xmlns:inkscape="http://www.inkscape.org/namespaces/inkscape"
   inkscape:export-ydpi="96"
   inkscape:export-xdpi="96"
   inkscape:export-filename="/home/don/.local/share/aurorae/themes/BigSur/closeTest.png"
   inkscape:version="1.0 (1.0+r73+1)"
   sodipodi:docname="maximize.svg"
   style="enable-background:new"
   version="1.1"
   height="32"
   width="64"
   id="svg4306">
  <metadata
     id="metadata40">
    <rdf:RDF>
      <cc:Work
         rdf:about="">
        <dc:format>image/svg+xml</dc:format>
        <dc:type
           rdf:resource="http://purl.org/dc/dcmitype/StillImage" />
        <dc:title />
      </cc:Work>
    </rdf:RDF>
  </metadata>
  <defs
     id="defs38" />
  <sodipodi:namedview
     fit-margin-bottom="0"
     fit-margin-right="0"
     fit-margin-left="0"
     fit-margin-top="0"
     inkscape:current-layer="buttonBaseInactive"
     inkscape:window-maximized="1"
     inkscape:window-y="24"
     inkscape:window-x="0"
     inkscape:cy="-14.740671"
     inkscape:cx="10.455472"
     inkscape:zoom="11.313709"
     inkscape:bbox-nodes="true"
     inkscape:snap-bbox="true"
     showgrid="true"
     id="namedview36"
     inkscape:window-height="964"
     inkscape:window-width="1920"
     inkscape:pageshadow="2"
     inkscape:pageopacity="0"
     guidetolerance="10"
     gridtolerance="10"
     objecttolerance="10"
     borderopacity="1"
     bordercolor="#666666"
     pagecolor="#f6f6f6"
     inkscape:document-rotation="0">
    <inkscape:grid
       originy="0"
       originx="0"
       id="grid865"
       type="xygrid" />
    <inkscape:grid
       originy="0"
       originx="0"
       spacingx="0.5"
       spacingy="0.5"
       id="grid859"
       type="xygrid" />
  </sodipodi:namedview>
  <style
     id="current-color-scheme"
     type="text/css">
        .ColorScheme-Text {
            color:#232629;
        }
        .ColorScheme-ButtonFocus{
            color:#3daee9;
        }
            .ColorScheme-NegativeText {
            color:#da4453;
        }
    </style>
  <g
     id="buttonBase">
    <rect
       y="-16"
       x="0"
       height="16"
       width="16"
       id="rect948"
       style="opacity:0.003;fill:#000000;fill-opacity:1;stroke:none;stroke-width:1.5;stroke-linecap:round;stroke-miterlimit:4;stroke-dasharray:none;stroke-opacity:1" />
    <g
       id="path859-5">
      <circle
         style="fill:#1c9d1b;fill-opacity:1;stroke:none;stroke-width:4.56667"
         id="circle861"
         cx="8"
         cy="-8"
         r="6.8499999" />
      <circle
         r="6"
         cy="-8"
         cx="8"
         id="circle863"
         style="fill:#36cc40;fill-opacity:1;stroke:none;stroke-width:4" />
    </g>
    <path
       id="circle862"
       style="opacity:0.1;fill:#ffffff;fill-opacity:1;stroke:none;stroke-width:4;enable-background:new"
       d="m 8.0000002,-14 a 6,6 0 0 0 -6,6 6,6 0 0 0 6,6 A 6,6 0 0 0 14,-8 6,6 0 0 0 8.0000002,-14 Z m 0,0.5 A 5.5,5.5 0 0 1 13.5,-8 a 5.5,5.5 0 0 1 -5.4999998,5.5 5.5,5.5 0 0 1 -5.5,-5.5 5.5,5.5 0 0 1 5.5,-5.5 z" />
  </g>
  <g
     id="buttonSymbol"
     style="enable-background:new"
     transform="translate(10.999998,-16.000002)">
    <path
       id="path949-7"
       style="color:#000000;font-style:normal;font-variant:normal;font-weight:normal;font-stretch:normal;font-size:medium;line-height:normal;font-family:sans-serif;font-variant-ligatures:normal;font-variant-position:normal;font-variant-caps:normal;font-variant-numeric:normal;font-variant-alternates:normal;font-variant-east-asian:normal;font-feature-settings:normal;font-variation-settings:normal;text-indent:0;text-align:start;text-decoration:none;text-decoration-line:none;text-decoration-style:solid;text-decoration-color:#000000;letter-spacing:normal;word-spacing:normal;text-transform:none;writing-mode:lr-tb;direction:ltr;text-orientation:mixed;dominant-baseline:auto;baseline-shift:baseline;text-anchor:start;white-space:normal;shape-padding:0;shape-margin:0;inline-size:0;clip-rule:nonzero;display:inline;overflow:visible;visibility:visible;opacity:1;isolation:auto;mix-blend-mode:normal;color-interpolation:sRGB;color-interpolation-filters:linearRGB;solid-color:#000000;solid-opacity:1;vector-effect:none;fill:#0f7901;fill-opacity:1;fill-rule:nonzero;stroke:none;stroke-width:0.999363;stroke-linecap:round;stroke-linejoin:miter;stroke-miterlimit:4;stroke-dasharray:none;stroke-dashoffset:0;stroke-opacity:1;color-rendering:auto;image-rendering:auto;shape-rendering:auto;text-rendering:auto;enable-background:new;stop-color:#000000;stop-opacity:1"
       d="m 21.505799,5.0003871 c -0.30878,-0.01294 -0.548384,0.306848 -0.499426,0.601487 v 2.900024 c -0.01384,0.348024 0.396104,0.611511 0.706219,0.451115 0.176482,-0.09375 0.296306,-0.263657 0.442851,-0.396434 l 2.700021,-2.702784 c 0.257383,-0.234914 0.153718,-0.703938 -0.169727,-0.818256 -0.149723,-0.05391 -0.310149,-0.02642 -0.466261,-0.03516 z m 5.023522,1.999748 c -0.08182,-0.0076 -0.164381,0.0068 -0.24191,0.04686 -0.176482,0.09375 -0.296305,0.261706 -0.44285,0.394481 L 23.14454,10.146213 c -0.257383,0.234914 -0.153717,0.703938 0.169727,0.818257 0.149724,0.05391 0.308199,0.02642 0.46431,0.03515 h 2.715629 c 0.30878,0.01294 0.548383,-0.308802 0.499426,-0.60344 V 7.4981051 c 0.01038,-0.261013 -0.218856,-0.475081 -0.464311,-0.497979 z" />
  </g>
  <g
     id="buttonBaseInactive"
     transform="translate(16)">
    <rect
       style="opacity:0.003;fill:#000000;fill-opacity:1;stroke:none;stroke-width:1.5;stroke-linecap:round;stroke-miterlimit:4;stroke-dasharray:none;stroke-opacity:1"
       id="rect957"
       width="16"
       height="16"
       x="0"
       y="-16" />
    <g
       id="circle961">
      <circle
         r="6.8499999"
         cy="-8"
         cx="8"
         id="circle864"
         style="opacity:0.1;fill:#000000;fill-opacity:1;stroke:none;stroke-width:4.56667" />
      <path
         d="m 8,-14.85 c -3.7831505,0 -6.85,3.066849 -6.85,6.85 0,3.7831505 3.0668495,6.85 6.85,6.85 3.783151,0 6.85,-3.0668495 6.85,-6.85 0,-3.783151 -3.066849,-6.85 -6.85,-6.85 z M 8,-14 c 3.313708,0 6,2.686292 6,6 0,3.3137085 -2.686291,6.0000001 -6,6.0000003 -3.3137087,0 -6.0000003,-2.6862916 -6.0000003,-6.0000003 2e-7,-3.313709 2.6862918,-6 6.0000003,-6 z"
         style="opacity:0.1;fill:#000000;fill-opacity:1;stroke:none;stroke-width:4.56667"
         id="circle866"
         sodipodi:nodetypes="ssssssssss" />
    </g>
    <path
       id="circle862-3"
       style="opacity:0.1;fill:#ffffff;fill-opacity:1;stroke:none;stroke-width:4;enable-background:new"
       d="m 8,-14 a 6,6 0 0 0 -6,6 6,6 0 0 0 6,6 6,6 0 0 0 6,-6 6,6 0 0 0 -6,-6 z m 0,0.5 A 5.5,5.5 0 0 1 13.5,-8 5.5,5.5 0 0 1 8,-2.5 5.5,5.5 0 0 1 2.5,-8 5.5,5.5 0 0 1 8,-13.5 Z" />
  </g>
  <use
     x="0"
     y="0"
     xlink:href="#buttonBase"
     id="active-center"
     transform="translate(0,16)"
     width="100%"
     height="100%" />
  <use
     x="0"
     y="0"
     xlink:href="#buttonBaseInactive"
     id="inactive-center"
     transform="translate(-16,32)"
     width="100%"
     height="100%" />
  <g
     id="hover-center">
    <use
       height="100%"
       width="100%"
       transform="translate(16,16)"
       id="use969"
       xlink:href="#buttonBase"
       y="0"
       x="0" />
    <use
       height="100%"
       width="100%"
       transform="translate(-11,16)"
       id="use971"
       xlink:href="#buttonSymbol"
       y="0"
       x="0" />
  </g>
  <use
     x="0"
     y="0"
     xlink:href="#hover-center"
     id="hover-inactive-center"
     transform="translate(0,16)"
     width="100%"
     height="100%" />
  <g
     id="buttonTint">
    <path
       d="m 54,-8 a 7,7 0 0 1 -7,7 7,7 0 0 1 -7,-7 7,7 0 0 1 7,-7 7,7 0 0 1 7,7"
       style="opacity:0.003;fill:#000000;fill-opacity:1;stroke:none;stroke-width:4.66667;enable-background:new"
       id="path1035" />
    <path
       id="path1033"
       style="opacity:0.25;fill:#000000;fill-opacity:1;stroke:none;stroke-width:4.56667;enable-background:new"
       d="M 53.85,-8 A 6.85,6.85 0 0 1 47,-1.15 6.85,6.85 0 0 1 40.15,-8 6.85,6.85 0 0 1 47,-14.85 6.85,6.85 0 0 1 53.85,-8" />
  </g>
  <g
     id="pressed-center">
    <use
       height="100%"
       width="100%"
       transform="translate(32,16)"
       id="use994"
       xlink:href="#buttonBase"
       y="0"
       x="0" />
    <use
       height="100%"
       width="100%"
       transform="translate(5,16)"
       id="use996"
       xlink:href="#buttonSymbol"
       y="0"
       x="0" />
    <use
       height="100%"
       width="100%"
       transform="translate(-7,16)"
       id="use998"
       xlink:href="#buttonTint"
       y="0"
       x="0" />
  </g>
  <use
     x="0"
     y="0"
     xlink:href="#pressed-center"
     id="pressed-inactive-center"
     transform="translate(0,16)"
     width="100%"
     height="100%" />
  <use
     x="0"
     y="0"
     xlink:href="#buttonBaseInactive"
     id="deactivated-center"
     transform="translate(32,16)"
     width="100%"
     height="100%" />
  <g
     id="deactivated-inactive-center">
    <use
       height="100%"
       width="100%"
       transform="translate(32,32)"
       id="use1045"
       xlink:href="#buttonBaseInactive"
       y="0"
       x="0" />
    <use
       style="opacity:0.3"
       height="100%"
       width="100%"
       transform="translate(9,32)"
       id="use1047"
       xlink:href="#buttonTint"
       y="0"
       x="0" />
  </g>
</svg>
