<?xml version="1.0" encoding="UTF-8" standalone="no"?>
<svg
   sodipodi:docname="_sumac_controlcentre.svg"
   inkscape:version="1.3.2 (091e20ef0f, 2023-11-25)"
   version="1.1"
   id="svg2"
   viewBox="0 0 22 22.000002"
   height="22.000002"
   width="22"
   xmlns:inkscape="http://www.inkscape.org/namespaces/inkscape"
   xmlns:sodipodi="http://sodipodi.sourceforge.net/DTD/sodipodi-0.dtd"
   xmlns="http://www.w3.org/2000/svg"
   xmlns:svg="http://www.w3.org/2000/svg"
   xmlns:rdf="http://www.w3.org/1999/02/22-rdf-syntax-ns#"
   xmlns:cc="http://creativecommons.org/ns#"
   xmlns:dc="http://purl.org/dc/elements/1.1/">
  <defs
     id="defs4">
    <style
       id="current-color-scheme"
       type="text/css">
      .ColorScheme-Text {
        color:#31363b;
        stop-color:#31363b;
      }
      </style>
  </defs>
  <sodipodi:namedview
     inkscape:bbox-nodes="true"
     inkscape:snap-bbox="true"
     inkscape:document-rotation="0"
     scale-x="1"
     inkscape:pagecheckerboard="0"
     guidetolerance="10.0"
     gridtolerance="10.0"
     objecttolerance="10.0"
     fit-margin-bottom="0"
     fit-margin-right="0"
     fit-margin-left="0"
     fit-margin-top="0"
     inkscape:window-maximized="1"
     inkscape:window-y="768"
     inkscape:window-x="0"
     inkscape:window-height="1008"
     inkscape:window-width="1920"
     borderlayer="true"
     inkscape:showpageshadow="false"
     units="px"
     showgrid="true"
     inkscape:current-layer="g3"
     inkscape:document-units="px"
     inkscape:cy="9.0934667"
     inkscape:cx="29.398057"
     inkscape:zoom="8.0277415"
     inkscape:pageshadow="2"
     inkscape:pageopacity="0"
     borderopacity="1"
     bordercolor="#c90303"
     pagecolor="#c3c3c3"
     id="base"
     inkscape:snap-grids="true"
     inkscape:snap-object-midpoints="false"
     inkscape:deskcolor="#d1d1d1">
    <inkscape:grid
       originy="8.0000037"
       originx="7.9999986"
       id="grid844"
       type="xygrid"
       spacingy="1"
       spacingx="1"
       units="px"
       visible="true" />
  </sodipodi:namedview>
  <metadata
     id="metadata7">
    <rdf:RDF>
      <cc:Work
         rdf:about="">
        <dc:format>image/svg+xml</dc:format>
        <dc:type
           rdf:resource="http://purl.org/dc/dcmitype/StillImage" />
      </cc:Work>
    </rdf:RDF>
  </metadata>
  <g
     transform="translate(-3.6416499,-253.54584)"
     id="layer1"
     inkscape:groupmode="layer"
     inkscape:label="Capa 1">
    <g
       class="ColorScheme-Text"
       fill="currentColor"
       style="stroke-width:0.264583;fill:#000000;fill-opacity:1"
       transform="matrix(5.939258,0,0,5.939258,-89.072618,-1260.5565)"
       id="up-arrow">
      <rect
         style="opacity:0.003;fill:#000000;fill-opacity:1;stroke:none;stroke-width:0.0099001;stroke-linecap:square;stroke-linejoin:miter;stroke-miterlimit:4;stroke-dasharray:none;stroke-dashoffset:0;stroke-opacity:1"
         id="rect4241"
         width="3.7041669"
         height="3.7041664"
         x="254.93123"
         y="15.610413"
         transform="matrix(0,1,1,0,0,0)" />
      <g
         id="g3"
         class="ColorScheme-Text"
         fill="currentColor">
        <path
           id="rect1"
           d="m 16.704825,255.60471 c -0.326469,0 -0.589299,0.26283 -0.589299,0.5893 0,0.32647 0.26283,0.5893 0.589299,0.5893 h 1.34697 c 0.32647,0 0.589299,-0.26283 0.589299,-0.5893 0,-0.32647 -0.262829,-0.5893 -0.589299,-0.5893 h -0.08419 z m 0,0.33675 c 0.139917,0 0.252557,0.11264 0.252557,0.25255 0,0.13992 -0.11264,0.25256 -0.252557,0.25256 -0.139916,0 -0.252556,-0.11264 -0.252556,-0.25256 0,-0.13991 0.11264,-0.25255 0.252556,-0.25255 z"
           sodipodi:nodetypes="sssccccssssss" />
        <path
           id="rect2"
           d="m 16.704825,256.95168 c -0.326469,0 -0.589299,0.26283 -0.589299,0.5893 0,0.32647 0.26283,0.5893 0.589299,0.5893 h 1.346974 c 0.32647,0 0.589299,-0.26283 0.589299,-0.5893 0,-0.32647 -0.262829,-0.5893 -0.589299,-0.5893 h -0.08419 z m 0,0.16837 h 1.346974 c 0.233194,0 0.420928,0.18774 0.420928,0.42093 0,0.2332 -0.187734,0.42093 -0.420928,0.42093 h -1.346974 c -0.233193,0 -0.420928,-0.18773 -0.420928,-0.42093 0,-0.23319 0.187735,-0.42093 0.420928,-0.42093 z"
           sodipodi:nodetypes="sssccccsscccsss" />
        <rect
           id="rect3"
           width="0.5051136"
           height="0.5051136"
           x="17.799238"
           y="257.28842"
           rx="0.58929569"
           ry="0.5051136" />
      </g>
    </g>
  </g>
</svg>
