<?xml version="1.0" encoding="UTF-8" standalone="no"?>
<svg
   xmlns:dc="http://purl.org/dc/elements/1.1/"
   xmlns:cc="http://creativecommons.org/ns#"
   xmlns:rdf="http://www.w3.org/1999/02/22-rdf-syntax-ns#"
   xmlns:svg="http://www.w3.org/2000/svg"
   xmlns="http://www.w3.org/2000/svg"
   xmlns:xlink="http://www.w3.org/1999/xlink"
   xmlns:sodipodi="http://sodipodi.sourceforge.net/DTD/sodipodi-0.dtd"
   xmlns:inkscape="http://www.inkscape.org/namespaces/inkscape"
   id="svg4306"
   width="64"
   height="32"
   version="1.1"
   style="enable-background:new"
   sodipodi:docname="minimize.svg"
   inkscape:version="1.0 (1.0+r73+1)"
   inkscape:export-filename="/home/don/.local/share/aurorae/themes/BigSur/closeTest.png"
   inkscape:export-xdpi="96"
   inkscape:export-ydpi="96">
  <metadata
     id="metadata40">
    <rdf:RDF>
      <cc:Work
         rdf:about="">
        <dc:format>image/svg+xml</dc:format>
        <dc:type
           rdf:resource="http://purl.org/dc/dcmitype/StillImage" />
        <dc:title />
      </cc:Work>
    </rdf:RDF>
  </metadata>
  <defs
     id="defs38" />
  <sodipodi:namedview
     fit-margin-bottom="0"
     fit-margin-right="0"
     fit-margin-left="0"
     fit-margin-top="0"
     inkscape:document-rotation="0"
     pagecolor="#f6f6f6"
     bordercolor="#666666"
     borderopacity="1"
     objecttolerance="10"
     gridtolerance="10"
     guidetolerance="10"
     inkscape:pageopacity="0"
     inkscape:pageshadow="2"
     inkscape:window-width="1920"
     inkscape:window-height="964"
     id="namedview36"
     showgrid="true"
     inkscape:snap-bbox="true"
     inkscape:bbox-nodes="true"
     inkscape:zoom="45.254837"
     inkscape:cx="10.719279"
     inkscape:cy="-6.4239735"
     inkscape:window-x="0"
     inkscape:window-y="24"
     inkscape:window-maximized="1"
     inkscape:current-layer="svg4306">
    <inkscape:grid
       originy="0"
       originx="0"
       type="xygrid"
       id="grid865" />
    <inkscape:grid
       originy="0"
       originx="0"
       type="xygrid"
       id="grid859"
       spacingy="0.5"
       spacingx="0.5" />
  </sodipodi:namedview>
  <style
     type="text/css"
     id="current-color-scheme">
        .ColorScheme-Text {
            color:#232629;
        }
        .ColorScheme-ButtonFocus{
            color:#3daee9;
        }
            .ColorScheme-NegativeText {
            color:#da4453;
        }
    </style>
  <g
     id="buttonBase">
    <rect
       style="opacity:0.003;fill:#000000;fill-opacity:1;stroke:none;stroke-width:1.5;stroke-linecap:round;stroke-miterlimit:4;stroke-dasharray:none;stroke-opacity:1"
       id="rect948"
       width="16"
       height="16"
       x="0"
       y="-16" />
    <g
       id="path859-5">
      <circle
         r="6.8499999"
         cy="-8"
         cx="8"
         id="circle861"
         style="fill:#d7a100;fill-opacity:1;stroke:none;stroke-width:4.56667" />
      <circle
         style="fill:#febf01;fill-opacity:1;stroke:none;stroke-width:4"
         id="circle863"
         cx="8"
         cy="-8"
         r="6" />
      <circle
         r="5"
         cy="-8"
         cx="8"
         id="circle862"
         style="opacity:0.015;fill:#000000;fill-opacity:1;stroke:none;stroke-width:3.33333" />
      <path
         id="circle862-3"
         style="opacity:0.1;fill:#ffffff;fill-opacity:1;stroke:none;stroke-width:4;enable-background:new"
         d="m 8,-14 a 6,6 0 0 0 -6,5.9999997 6,6 0 0 0 6,6 6,6 0 0 0 6,-6 A 6,6 0 0 0 8,-14 Z m 0,0.5 a 5.5,5.5 0 0 1 5.5,5.4999997 5.5,5.5 0 0 1 -5.5,5.5 5.5,5.5 0 0 1 -5.5,-5.5 A 5.5,5.5 0 0 1 8,-13.5 Z" />
    </g>
  </g>
  <g
     transform="translate(10.999998,-16.000002)"
     style="enable-background:new"
     id="buttonSymbol">
    <path
       style="fill:none;stroke:#a76900;stroke-width:2;stroke-linecap:round;stroke-linejoin:miter;stroke-miterlimit:4;stroke-dasharray:none;stroke-opacity:1;enable-background:new"
       d="m 21.000002,8.000002 h 6"
       id="path924-6-7"
       sodipodi:nodetypes="cc" />
  </g>
  <g
     transform="translate(16)"
     id="buttonBaseInactive">
    <rect
       y="-16"
       x="0"
       height="16"
       width="16"
       id="rect957"
       style="opacity:0.003;fill:#000000;fill-opacity:1;stroke:none;stroke-width:1.5;stroke-linecap:round;stroke-miterlimit:4;stroke-dasharray:none;stroke-opacity:1" />
    <g
       id="circle961">
      <circle
         style="opacity:0.1;fill:#000000;fill-opacity:1;stroke:none;stroke-width:4.56667"
         id="circle864"
         cx="8"
         cy="-8"
         r="6.8499999" />
      <path
         d="m 8,-14.85 c -3.7831505,0 -6.85,3.066849 -6.85,6.85 0,3.7831505 3.0668495,6.85 6.85,6.85 3.783151,0 6.85,-3.0668495 6.85,-6.85 0,-3.783151 -3.066849,-6.85 -6.85,-6.85 z M 8,-14 c 3.313708,0 6,2.686292 6,6 0,3.3137085 -2.686291,6.0000001 -6,6.0000003 -3.3137087,0 -6.0000003,-2.6862916 -6.0000003,-6.0000003 2e-7,-3.313709 2.6862918,-6 6.0000003,-6 z"
         style="opacity:0.1;fill:#000000;fill-opacity:1;stroke:none;stroke-width:4.56667"
         id="circle866"
         sodipodi:nodetypes="ssssssssss" />
    </g>
    <path
       id="circle862-6"
       style="opacity:0.1;fill:#ffffff;fill-opacity:1;stroke:none;stroke-width:4;enable-background:new"
       d="m 8,-14 a 6,6 0 0 0 -6,6 6,6 0 0 0 6,6 6,6 0 0 0 6,-6 6,6 0 0 0 -6,-6 z m 0,0.5 A 5.5,5.5 0 0 1 13.5,-8 5.5,5.5 0 0 1 8,-2.5 5.5,5.5 0 0 1 2.5,-8 5.5,5.5 0 0 1 8,-13.5 Z" />
  </g>
  <use
     height="100%"
     width="100%"
     transform="translate(0,16)"
     id="active-center"
     xlink:href="#buttonBase"
     y="0"
     x="0" />
  <use
     height="100%"
     width="100%"
     transform="translate(-16,32)"
     id="inactive-center"
     xlink:href="#buttonBaseInactive"
     y="0"
     x="0" />
  <g
     id="hover-center">
    <use
       x="0"
       y="0"
       xlink:href="#buttonBase"
       id="use969"
       transform="translate(16,16)"
       width="100%"
       height="100%" />
    <use
       x="0"
       y="0"
       xlink:href="#buttonSymbol"
       id="use971"
       transform="translate(-11,16)"
       width="100%"
       height="100%" />
  </g>
  <use
     height="100%"
     width="100%"
     transform="translate(0,16)"
     id="hover-inactive-center"
     xlink:href="#hover-center"
     y="0"
     x="0" />
  <g
     id="buttonTint">
    <path
       id="path1035"
       style="opacity:0.003;fill:#000000;fill-opacity:1;stroke:none;stroke-width:4.66667;enable-background:new"
       d="m 54,-8 a 7,7 0 0 1 -7,7 7,7 0 0 1 -7,-7 7,7 0 0 1 7,-7 7,7 0 0 1 7,7" />
    <path
       d="M 53.85,-8 A 6.85,6.85 0 0 1 47,-1.15 6.85,6.85 0 0 1 40.15,-8 6.85,6.85 0 0 1 47,-14.85 6.85,6.85 0 0 1 53.85,-8"
       style="opacity:0.25;fill:#000000;fill-opacity:1;stroke:none;stroke-width:4.56667;enable-background:new"
       id="path1033" />
  </g>
  <g
     id="pressed-center">
    <use
       x="0"
       y="0"
       xlink:href="#buttonBase"
       id="use994"
       transform="translate(32,16)"
       width="100%"
       height="100%" />
    <use
       x="0"
       y="0"
       xlink:href="#buttonSymbol"
       id="use996"
       transform="translate(5,16)"
       width="100%"
       height="100%" />
    <use
       x="0"
       y="0"
       xlink:href="#buttonTint"
       id="use998"
       transform="translate(-7,16)"
       width="100%"
       height="100%" />
  </g>
  <use
     height="100%"
     width="100%"
     transform="translate(0,16)"
     id="pressed-inactive-center"
     xlink:href="#pressed-center"
     y="0"
     x="0" />
  <use
     height="100%"
     width="100%"
     transform="translate(32,16)"
     id="deactivated-center"
     xlink:href="#buttonBaseInactive"
     y="0"
     x="0" />
  <g
     id="deactivated-inactive-center">
    <use
       x="0"
       y="0"
       xlink:href="#buttonBaseInactive"
       id="use1045"
       transform="translate(32,32)"
       width="100%"
       height="100%" />
    <use
       x="0"
       y="0"
       xlink:href="#buttonTint"
       id="use1047"
       transform="translate(9,32)"
       width="100%"
       height="100%"
       style="opacity:0.3" />
  </g>
</svg>
