<?xml version="1.0" encoding="UTF-8" standalone="no"?>
<svg
   xmlns:dc="http://purl.org/dc/elements/1.1/"
   xmlns:cc="http://creativecommons.org/ns#"
   xmlns:rdf="http://www.w3.org/1999/02/22-rdf-syntax-ns#"
   xmlns:svg="http://www.w3.org/2000/svg"
   xmlns="http://www.w3.org/2000/svg"
   xmlns:xlink="http://www.w3.org/1999/xlink"
   xmlns:sodipodi="http://sodipodi.sourceforge.net/DTD/sodipodi-0.dtd"
   xmlns:inkscape="http://www.inkscape.org/namespaces/inkscape"
   id="svg4306"
   width="64"
   height="32"
   version="1.1"
   style="enable-background:new"
   sodipodi:docname="close.svg"
   inkscape:version="1.0 (1.0+r73+1)"
   inkscape:export-filename="/home/don/.local/share/aurorae/themes/BigSur/closeTest.png"
   inkscape:export-xdpi="96"
   inkscape:export-ydpi="96">
  <metadata
     id="metadata40">
    <rdf:RDF>
      <cc:Work
         rdf:about="">
        <dc:format>image/svg+xml</dc:format>
        <dc:type
           rdf:resource="http://purl.org/dc/dcmitype/StillImage" />
        <dc:title />
      </cc:Work>
    </rdf:RDF>
  </metadata>
  <defs
     id="defs38" />
  <sodipodi:namedview
     inkscape:document-rotation="0"
     pagecolor="#f6f6f6"
     bordercolor="#666666"
     borderopacity="1"
     objecttolerance="10"
     gridtolerance="10"
     guidetolerance="10"
     inkscape:pageopacity="0"
     inkscape:pageshadow="2"
     inkscape:window-width="1920"
     inkscape:window-height="1000"
     id="namedview36"
     showgrid="true"
     inkscape:snap-bbox="true"
     inkscape:bbox-nodes="true"
     inkscape:zoom="16.000001"
     inkscape:cx="16.221853"
     inkscape:cy="-6.8697401"
     inkscape:window-x="0"
     inkscape:window-y="0"
     inkscape:window-maximized="1"
     inkscape:current-layer="svg4306"
     fit-margin-top="0"
     fit-margin-left="0"
     fit-margin-right="0"
     fit-margin-bottom="0">
    <inkscape:grid
       type="xygrid"
       id="grid865"
       originx="0"
       originy="0" />
    <inkscape:grid
       id="grid860"
       type="xygrid"
       spacingx="0.5"
       spacingy="0.5"
       originx="0"
       originy="0" />
  </sodipodi:namedview>
  <style
     type="text/css"
     id="current-color-scheme">
        .ColorScheme-Text {
            color:#232629;
        }
        .ColorScheme-ButtonFocus{
            color:#3daee9;
        }
            .ColorScheme-NegativeText {
            color:#da4453;
        }
    </style>
  <g
     id="buttonBase">
    <rect
       style="opacity:0.003;fill:#000000;fill-opacity:1;stroke:none;stroke-width:1.5;stroke-linecap:round;stroke-miterlimit:4;stroke-dasharray:none;stroke-opacity:1"
       id="rect948"
       width="16"
       height="16"
       x="0"
       y="-16" />
    <g
       id="path859-5">
      <circle
         r="6"
         cy="-8"
         cx="8"
         id="circle862"
         style="fill:#dc2d34;fill-opacity:1;stroke:none;stroke-width:4" />
      <circle
         style="fill:#fd585f;fill-opacity:1;stroke:none;stroke-width:3.33333"
         id="circle864"
         cx="8"
         cy="-8"
         r="5" />
    </g>
  </g>
  <g
     transform="translate(10.999998,-16.000002)"
     style="enable-background:new"
     id="buttonSymbol">
    <path
       id="path869-5"
       d="m 21.818182,5.8181818 4.363636,4.3636362"
       style="fill:none;fill-opacity:1;stroke:#7d0008;stroke-width:1.63636;stroke-linecap:round;stroke-linejoin:miter;stroke-miterlimit:4;stroke-dasharray:none;stroke-opacity:1" />
    <path
       style="fill:none;fill-opacity:1;stroke:#7d0008;stroke-width:1.63636;stroke-linecap:round;stroke-linejoin:miter;stroke-miterlimit:4;stroke-dasharray:none;stroke-opacity:1"
       d="M 26.181818,5.8181818 21.818182,10.181818"
       id="path871-6" />
  </g>
  <g
     transform="translate(16)"
     id="buttonBaseInactive">
    <rect
       y="-16"
       x="0"
       height="16"
       width="16"
       id="rect957"
       style="opacity:0.003;fill:#000000;fill-opacity:1;stroke:none;stroke-width:1.5;stroke-linecap:round;stroke-miterlimit:4;stroke-dasharray:none;stroke-opacity:1" />
    <circle
       r="6"
       cy="-8"
       cx="8"
       id="circle961"
       style="opacity:0.1;fill:#000000;fill-opacity:1;stroke:none;stroke-width:4" />
    <path
       transform="translate(-16)"
       d="M 24 -14 A 6 6 0 0 0 18 -8 A 6 6 0 0 0 24 -2 A 6 6 0 0 0 30 -8 A 6 6 0 0 0 24 -14 z M 24 -13 A 5 5 0 0 1 29 -8 A 5 5 0 0 1 24 -3 A 5 5 0 0 1 19 -8 A 5 5 0 0 1 24 -13 z "
       style="opacity:0.1;fill:#000000;fill-opacity:1;stroke:none;stroke-width:4"
       id="circle866" />
  </g>
  <use
     height="100%"
     width="100%"
     transform="translate(0,16)"
     id="active-center"
     xlink:href="#buttonBase"
     y="0"
     x="0" />
  <use
     height="100%"
     width="100%"
     transform="translate(-16,32)"
     id="inactive-center"
     xlink:href="#buttonBaseInactive"
     y="0"
     x="0" />
  <g
     id="hover-center">
    <use
       x="0"
       y="0"
       xlink:href="#buttonBase"
       id="use969"
       transform="translate(16,16)"
       width="100%"
       height="100%" />
    <use
       x="0"
       y="0"
       xlink:href="#buttonSymbol"
       id="use971"
       transform="translate(-11,16)"
       width="100%"
       height="100%" />
  </g>
  <use
     height="100%"
     width="100%"
     transform="translate(0,16)"
     id="hover-inactive-center"
     xlink:href="#hover-center"
     y="0"
     x="0" />
  <g
     id="buttonTint">
    <path
       id="path1035"
       style="opacity:0.003;fill:#000000;fill-opacity:1;stroke:none;stroke-width:4.66667;enable-background:new"
       d="m 54,-8 a 7,7 0 0 1 -7,7 7,7 0 0 1 -7,-7 7,7 0 0 1 7,-7 7,7 0 0 1 7,7" />
    <path
       d="m 53,-8 a 6,6 0 0 1 -6,6 6,6 0 0 1 -6,-6 6,6 0 0 1 6,-6 6,6 0 0 1 6,6"
       style="opacity:0.25;fill:#000000;fill-opacity:1;stroke:none;stroke-width:4;enable-background:new"
       id="path1033" />
  </g>
  <g
     id="pressed-center">
    <use
       x="0"
       y="0"
       xlink:href="#buttonBase"
       id="use994"
       transform="translate(32,16)"
       width="100%"
       height="100%" />
    <use
       x="0"
       y="0"
       xlink:href="#buttonSymbol"
       id="use996"
       transform="translate(5,16)"
       width="100%"
       height="100%" />
    <use
       x="0"
       y="0"
       xlink:href="#buttonTint"
       id="use998"
       transform="translate(-7,16)"
       width="100%"
       height="100%" />
  </g>
  <use
     height="100%"
     width="100%"
     transform="translate(0,16)"
     id="pressed-inactive-center"
     xlink:href="#pressed-center"
     y="0"
     x="0" />
  <use
     height="100%"
     width="100%"
     transform="translate(32,16)"
     id="deactivated-center"
     xlink:href="#buttonBaseInactive"
     y="0"
     x="0" />
  <g
     id="deactivated-inactive-center">
    <use
       x="0"
       y="0"
       xlink:href="#buttonBaseInactive"
       id="use1045"
       transform="translate(32,32)"
       width="100%"
       height="100%" />
    <use
       x="0"
       y="0"
       xlink:href="#buttonTint"
       id="use1047"
       transform="translate(9,32)"
       width="100%"
       height="100%"
       style="opacity:0.3" />
  </g>
</svg>
