<?xml version="1.0" encoding="UTF-8" standalone="no"?>
<svg
   xmlns:dc="http://purl.org/dc/elements/1.1/"
   xmlns:cc="http://creativecommons.org/ns#"
   xmlns:rdf="http://www.w3.org/1999/02/22-rdf-syntax-ns#"
   xmlns:svg="http://www.w3.org/2000/svg"
   xmlns="http://www.w3.org/2000/svg"
   xmlns:xlink="http://www.w3.org/1999/xlink"
   xmlns:sodipodi="http://sodipodi.sourceforge.net/DTD/sodipodi-0.dtd"
   xmlns:inkscape="http://www.inkscape.org/namespaces/inkscape"
   inkscape:export-ydpi="96"
   inkscape:export-xdpi="96"
   inkscape:export-filename="/home/don/.local/share/aurorae/themes/BigSur/closeTest.png"
   inkscape:version="1.0 (1.0+r73+1)"
   sodipodi:docname="minimize.svg"
   style="enable-background:new"
   version="1.1"
   height="32"
   width="64"
   id="svg4306">
  <metadata
     id="metadata40">
    <rdf:RDF>
      <cc:Work
         rdf:about="">
        <dc:format>image/svg+xml</dc:format>
        <dc:type
           rdf:resource="http://purl.org/dc/dcmitype/StillImage" />
        <dc:title />
      </cc:Work>
    </rdf:RDF>
  </metadata>
  <defs
     id="defs38" />
  <sodipodi:namedview
     inkscape:current-layer="svg4306"
     inkscape:window-maximized="1"
     inkscape:window-y="0"
     inkscape:window-x="0"
     inkscape:cy="-2.5814063"
     inkscape:cx="27.31541"
     inkscape:zoom="11.313709"
     inkscape:bbox-nodes="true"
     inkscape:snap-bbox="true"
     showgrid="true"
     id="namedview36"
     inkscape:window-height="1000"
     inkscape:window-width="1920"
     inkscape:pageshadow="2"
     inkscape:pageopacity="0"
     guidetolerance="10"
     gridtolerance="10"
     objecttolerance="10"
     borderopacity="1"
     bordercolor="#666666"
     pagecolor="#f6f6f6"
     inkscape:document-rotation="0"
     fit-margin-top="0"
     fit-margin-left="0"
     fit-margin-right="0"
     fit-margin-bottom="0">
    <inkscape:grid
       id="grid865"
       type="xygrid"
       originx="0"
       originy="0" />
    <inkscape:grid
       spacingx="0.5"
       spacingy="0.5"
       id="grid859"
       type="xygrid"
       originx="0"
       originy="0" />
  </sodipodi:namedview>
  <style
     id="current-color-scheme"
     type="text/css">
        .ColorScheme-Text {
            color:#232629;
        }
        .ColorScheme-ButtonFocus{
            color:#3daee9;
        }
            .ColorScheme-NegativeText {
            color:#da4453;
        }
    </style>
  <g
     id="buttonBase">
    <rect
       y="-16"
       x="0"
       height="16"
       width="16"
       id="rect948"
       style="opacity:0.003;fill:#000000;fill-opacity:1;stroke:none;stroke-width:1.5;stroke-linecap:round;stroke-miterlimit:4;stroke-dasharray:none;stroke-opacity:1" />
    <g
       id="path859-5">
      <circle
         style="fill:#de9c10;fill-opacity:1;stroke:none;stroke-width:4"
         id="circle861"
         cx="8"
         cy="-8"
         r="6" />
      <circle
         r="5"
         cy="-8"
         cx="8"
         id="circle863"
         style="fill:#febe30;fill-opacity:1;stroke:none;stroke-width:3.33333" />
    </g>
  </g>
  <g
     id="buttonSymbol"
     style="enable-background:new"
     transform="translate(10.999998,-16.000002)">
    <path
       sodipodi:nodetypes="cc"
       id="path924-6-7"
       d="m 21.000002,8.000002 h 6"
       style="fill:none;stroke:#a76900;stroke-width:2;stroke-linecap:round;stroke-linejoin:miter;stroke-miterlimit:4;stroke-dasharray:none;stroke-opacity:1;enable-background:new" />
  </g>
  <g
     id="buttonBaseInactive"
     transform="translate(16)">
    <rect
       style="opacity:0.003;fill:#000000;fill-opacity:1;stroke:none;stroke-width:1.5;stroke-linecap:round;stroke-miterlimit:4;stroke-dasharray:none;stroke-opacity:1"
       id="rect957"
       width="16"
       height="16"
       x="0"
       y="-16" />
    <g
       id="circle961">
      <circle
         r="6"
         cy="-8"
         cx="8"
         id="circle864"
         style="opacity:0.1;fill:#000000;fill-opacity:1;stroke:none;stroke-width:4" />
      <path
         id="circle866"
         style="opacity:0.1;fill:#000000;fill-opacity:1;stroke:none;stroke-width:4"
         d="M 24 -14 A 6 6 0 0 0 18 -8 A 6 6 0 0 0 24 -2 A 6 6 0 0 0 30 -8 A 6 6 0 0 0 24 -14 z M 24 -13 A 5 5 0 0 1 29 -8 A 5 5 0 0 1 24 -3 A 5 5 0 0 1 19 -8 A 5 5 0 0 1 24 -13 z "
         transform="translate(-16)" />
    </g>
  </g>
  <use
     x="0"
     y="0"
     xlink:href="#buttonBase"
     id="active-center"
     transform="translate(0,16)"
     width="100%"
     height="100%" />
  <use
     x="0"
     y="0"
     xlink:href="#buttonBaseInactive"
     id="inactive-center"
     transform="translate(-16,32)"
     width="100%"
     height="100%" />
  <g
     id="hover-center">
    <use
       height="100%"
       width="100%"
       transform="translate(16,16)"
       id="use969"
       xlink:href="#buttonBase"
       y="0"
       x="0" />
    <use
       height="100%"
       width="100%"
       transform="translate(-11,16)"
       id="use971"
       xlink:href="#buttonSymbol"
       y="0"
       x="0" />
  </g>
  <use
     x="0"
     y="0"
     xlink:href="#hover-center"
     id="hover-inactive-center"
     transform="translate(0,16)"
     width="100%"
     height="100%" />
  <g
     id="buttonTint">
    <path
       d="m 54,-8 a 7,7 0 0 1 -7,7 7,7 0 0 1 -7,-7 7,7 0 0 1 7,-7 7,7 0 0 1 7,7"
       style="opacity:0.003;fill:#000000;fill-opacity:1;stroke:none;stroke-width:4.66667;enable-background:new"
       id="path1035" />
    <path
       id="path1033"
       style="opacity:0.25;fill:#000000;fill-opacity:1;stroke:none;stroke-width:4;enable-background:new"
       d="m 53,-8 a 6,6 0 0 1 -6,6 6,6 0 0 1 -6,-6 6,6 0 0 1 6,-6 6,6 0 0 1 6,6" />
  </g>
  <g
     id="pressed-center">
    <use
       height="100%"
       width="100%"
       transform="translate(32,16)"
       id="use994"
       xlink:href="#buttonBase"
       y="0"
       x="0" />
    <use
       height="100%"
       width="100%"
       transform="translate(5,16)"
       id="use996"
       xlink:href="#buttonSymbol"
       y="0"
       x="0" />
    <use
       height="100%"
       width="100%"
       transform="translate(-7,16)"
       id="use998"
       xlink:href="#buttonTint"
       y="0"
       x="0" />
  </g>
  <use
     x="0"
     y="0"
     xlink:href="#pressed-center"
     id="pressed-inactive-center"
     transform="translate(0,16)"
     width="100%"
     height="100%" />
  <use
     x="0"
     y="0"
     xlink:href="#buttonBaseInactive"
     id="deactivated-center"
     transform="translate(32,16)"
     width="100%"
     height="100%" />
  <g
     id="deactivated-inactive-center">
    <use
       height="100%"
       width="100%"
       transform="translate(32,32)"
       id="use1045"
       xlink:href="#buttonBaseInactive"
       y="0"
       x="0" />
    <use
       style="opacity:0.3"
       height="100%"
       width="100%"
       transform="translate(9,32)"
       id="use1047"
       xlink:href="#buttonTint"
       y="0"
       x="0" />
  </g>
</svg>
