<?xml version="1.0" encoding="UTF-8" standalone="no"?>
<!-- Created with Inkscape (http://www.inkscape.org/) -->

<svg
   version="1.1"
   id="svg2"
   width="654"
   height="654"
   viewBox="0 0 654 654"
   sodipodi:docname="sumac-day-13.svg"
   inkscape:version="1.3.2 (091e20ef0f, 2023-11-25)"
   xml:space="preserve"
   xmlns:inkscape="http://www.inkscape.org/namespaces/inkscape"
   xmlns:sodipodi="http://sodipodi.sourceforge.net/DTD/sodipodi-0.dtd"
   xmlns:xlink="http://www.w3.org/1999/xlink"
   xmlns="http://www.w3.org/2000/svg"
   xmlns:svg="http://www.w3.org/2000/svg"><defs
     id="defs6"><linearGradient
       inkscape:collect="always"
       id="linearGradient131453"><stop
         style="stop-color:#fef08e;stop-opacity:1;"
         offset="0"
         id="stop131449" /><stop
         style="stop-color:#fef08e;stop-opacity:0;"
         offset="1"
         id="stop131451" /></linearGradient><linearGradient
       inkscape:collect="always"
       id="linearGradient127766"><stop
         style="stop-color:#ffb22d;stop-opacity:1;"
         offset="0"
         id="stop127762" /><stop
         style="stop-color:#fd3002;stop-opacity:1;"
         offset="1"
         id="stop127764" /></linearGradient><linearGradient
       inkscape:collect="always"
       id="linearGradient107864"><stop
         style="stop-color:#ffb22d;stop-opacity:1;"
         offset="0"
         id="stop107860" /><stop
         style="stop-color:#ffb22d;stop-opacity:0;"
         offset="1"
         id="stop107862" /></linearGradient><linearGradient
       inkscape:collect="always"
       id="linearGradient107534"><stop
         style="stop-color:#ffb22d;stop-opacity:1;"
         offset="0"
         id="stop107530" /><stop
         style="stop-color:#ffb22d;stop-opacity:0;"
         offset="1"
         id="stop107532" /></linearGradient><linearGradient
       inkscape:collect="always"
       id="linearGradient102214"><stop
         style="stop-color:#ffec86;stop-opacity:0;"
         offset="0"
         id="stop102212" /><stop
         style="stop-color:#ffec86;stop-opacity:0.1;"
         offset="0.76777494"
         id="stop102220" /><stop
         style="stop-color:#ffec86;stop-opacity:1;"
         offset="1"
         id="stop102210" /></linearGradient><linearGradient
       inkscape:collect="always"
       id="linearGradient96677"><stop
         style="stop-color:#d62500;stop-opacity:1;"
         offset="0"
         id="stop96673" /><stop
         style="stop-color:#d62500;stop-opacity:0;"
         offset="1"
         id="stop96675" /></linearGradient><linearGradient
       inkscape:collect="always"
       id="linearGradient81861"><stop
         style="stop-color:#d62500;stop-opacity:1;"
         offset="0"
         id="stop81857" /><stop
         style="stop-color:#fead30;stop-opacity:0;"
         offset="1"
         id="stop81859" /></linearGradient><linearGradient
       inkscape:collect="always"
       id="linearGradient79051"><stop
         style="stop-color:#d62500;stop-opacity:1;"
         offset="0"
         id="stop79047" /><stop
         style="stop-color:#d62500;stop-opacity:0;"
         offset="1"
         id="stop79049" /></linearGradient><linearGradient
       inkscape:collect="always"
       id="petalShadow"><stop
         style="stop-color:#ffb747;stop-opacity:1;"
         offset="0"
         id="stop58442" /><stop
         style="stop-color:#ffb747;stop-opacity:1;"
         offset="0.7960394"
         id="stop58450" /><stop
         style="stop-color:#ffb747;stop-opacity:0;"
         offset="1"
         id="stop58444" /></linearGradient><linearGradient
       inkscape:collect="always"
       id="linearGradient40516"><stop
         style="stop-color:#ffc43b;stop-opacity:1;"
         offset="0"
         id="stop40512" /><stop
         style="stop-color:#f23b0d;stop-opacity:1;"
         offset="1"
         id="stop40514" /></linearGradient><linearGradient
       inkscape:collect="always"
       id="linearGradient39697"><stop
         style="stop-color:#f24d11;stop-opacity:1;"
         offset="0"
         id="stop39693" /><stop
         style="stop-color:#ffb52e;stop-opacity:1;"
         offset="1"
         id="stop39695" /></linearGradient><linearGradient
       inkscape:collect="always"
       id="linearGradient39149"><stop
         style="stop-color:#d73702;stop-opacity:1;"
         offset="0"
         id="stop39145" /><stop
         style="stop-color:#f99c2e;stop-opacity:1;"
         offset="1"
         id="stop39147" /></linearGradient><linearGradient
       inkscape:collect="always"
       id="linearGradient37155"><stop
         style="stop-color:#eb5418;stop-opacity:1;"
         offset="0"
         id="stop37151" /><stop
         style="stop-color:#f3a936;stop-opacity:1;"
         offset="1"
         id="stop37153" /></linearGradient><linearGradient
       inkscape:collect="always"
       id="linearGradient16191"><stop
         style="stop-color:#ea5e1f;stop-opacity:1;"
         offset="0"
         id="stop16187" /><stop
         style="stop-color:#f46410;stop-opacity:1;"
         offset="0.45519456"
         id="stop16193" /><stop
         style="stop-color:#ffd94c;stop-opacity:1;"
         offset="1"
         id="stop16189" /></linearGradient><linearGradient
       inkscape:collect="always"
       id="linearGradient134251"><stop
         style="stop-color:#358fd2;stop-opacity:1;"
         offset="0"
         id="stop134245" /><stop
         style="stop-color:#328ed5;stop-opacity:0.88627451;"
         offset="0.78526169"
         id="stop134247" /><stop
         style="stop-color:#328ed5;stop-opacity:0;"
         offset="1"
         id="stop134249" /></linearGradient><linearGradient
       inkscape:collect="always"
       id="linearGradient101562"><stop
         style="stop-color:#fec647;stop-opacity:0;"
         offset="0"
         id="stop101560" /><stop
         style="stop-color:#fec647;stop-opacity:0;"
         offset="0.30010238"
         id="stop108355" /><stop
         style="stop-color:#dbd19b;stop-opacity:1;"
         offset="0.57705575"
         id="stop108262" /><stop
         style="stop-color:#62bceb;stop-opacity:1;"
         offset="1"
         id="stop101558" /></linearGradient><linearGradient
       inkscape:collect="always"
       id="linearGradient86057"><stop
         style="stop-color:#fca03b;stop-opacity:1;"
         offset="0"
         id="stop86053" /><stop
         style="stop-color:#ed7f35;stop-opacity:0;"
         offset="1"
         id="stop86055" /></linearGradient><linearGradient
       inkscape:collect="always"
       id="linearGradient75865"><stop
         style="stop-color:#5fbceb;stop-opacity:1;"
         offset="0"
         id="stop75861" /><stop
         style="stop-color:#77d1f6;stop-opacity:1;"
         offset="1"
         id="stop75863" /></linearGradient><linearGradient
       inkscape:collect="always"
       id="linearGradient50012"><stop
         style="stop-color:#ea5e1f;stop-opacity:1;"
         offset="0"
         id="stop50008" /><stop
         style="stop-color:#ffc141;stop-opacity:1;"
         offset="1"
         id="stop50010" /></linearGradient><linearGradient
       inkscape:collect="always"
       id="linearGradient2685"><stop
         style="stop-color:#11457d;stop-opacity:1;"
         offset="0"
         id="stop2681" /><stop
         style="stop-color:#4897cb;stop-opacity:1;"
         offset="1"
         id="stop2683" /></linearGradient><radialGradient
       inkscape:collect="always"
       xlink:href="#linearGradient50012"
       id="radialGradient127376"
       gradientUnits="userSpaceOnUse"
       gradientTransform="matrix(0.91510574,-1.4435125,3.9610032,2.5110534,-1941.8075,-546.55404)"
       cx="153.01727"
       cy="508.38242"
       fx="153.01727"
       fy="508.38242"
       r="121.39674" /><linearGradient
       inkscape:collect="always"
       xlink:href="#linearGradient75865"
       id="linearGradient75867-4-8"
       x1="179.32726"
       y1="112.0567"
       x2="197.16841"
       y2="29.077759"
       gradientUnits="userSpaceOnUse" /><radialGradient
       inkscape:collect="always"
       xlink:href="#linearGradient134251"
       id="radialGradient83679-9-7"
       cx="947.65021"
       cy="14.712862"
       fx="947.65021"
       fy="14.712862"
       r="327"
       gradientTransform="matrix(0.40201187,0.50325543,-0.59867122,0.47823222,230.28414,-316.09736)"
       gradientUnits="userSpaceOnUse" /><radialGradient
       inkscape:collect="always"
       xlink:href="#linearGradient16191"
       id="radialGradient46970-1-9"
       gradientUnits="userSpaceOnUse"
       gradientTransform="matrix(0.88145942,-1.6540824,5.2572604,2.8015912,-2570.9799,-663.4048)"
       cx="122.28239"
       cy="483.11795"
       fx="122.28239"
       fy="483.11795"
       r="121.39674" /><radialGradient
       inkscape:collect="always"
       xlink:href="#linearGradient101562"
       id="radialGradient101564-9-2"
       cx="52.332199"
       cy="-78.88546"
       fx="52.332199"
       fy="-78.88546"
       r="178.6689"
       gradientTransform="matrix(0.67604009,-0.18114441,0.0405147,0.15120293,2.6887213,214.63519)"
       gradientUnits="userSpaceOnUse" /><radialGradient
       inkscape:collect="always"
       xlink:href="#linearGradient37155"
       id="radialGradient9358-5-3"
       cx="79.052238"
       cy="484.88855"
       fx="79.052238"
       fy="484.88855"
       r="121.39674"
       gradientTransform="matrix(0.57232491,-0.6743019,1.8192876,1.5441503,-841.20502,-185.35165)"
       gradientUnits="userSpaceOnUse" /><radialGradient
       inkscape:collect="always"
       xlink:href="#linearGradient39697"
       id="radialGradient25727-6-0"
       cx="496.62393"
       cy="492.46375"
       fx="496.62393"
       fy="492.46375"
       r="127.5349"
       gradientTransform="matrix(-0.66147539,-0.74996687,5.6257847,-4.9619782,-1787.9905,3187.132)"
       gradientUnits="userSpaceOnUse" /><radialGradient
       inkscape:collect="always"
       xlink:href="#linearGradient39149"
       id="radialGradient34636-5-0"
       cx="653.99994"
       cy="628.26617"
       fx="653.99994"
       fy="628.26617"
       r="115.72314"
       gradientTransform="matrix(1.4039139e-6,-2.1911988,1.5891,4.1999426e-7,-344.3787,2087.0437)"
       gradientUnits="userSpaceOnUse" /><radialGradient
       inkscape:collect="always"
       xlink:href="#linearGradient86057"
       id="radialGradient86059-1-1"
       cx="-157.85114"
       cy="152.02425"
       fx="-157.85114"
       fy="152.02425"
       r="117.44448"
       gradientTransform="matrix(-0.21033536,-1.306169,0.55414955,-0.08923596,299.02689,91.666694)"
       gradientUnits="userSpaceOnUse" /><linearGradient
       inkscape:collect="always"
       xlink:href="#linearGradient2685"
       id="linearGradient2687-6"
       x1="121.39674"
       y1="654"
       x2="121.39674"
       y2="428.27536"
       gradientUnits="userSpaceOnUse"
       gradientTransform="translate(7.9101553e-8,1.1872656e-5)" /><radialGradient
       inkscape:collect="always"
       xlink:href="#linearGradient40516"
       id="radialGradient11111"
       cx="243.47414"
       cy="290.78528"
       fx="243.47414"
       fy="290.78528"
       r="217.56516"
       gradientTransform="matrix(0.76531456,-0.52835366,1.7748934,2.5709141,-622.41592,-352.03175)"
       gradientUnits="userSpaceOnUse" /><radialGradient
       inkscape:collect="always"
       xlink:href="#petalShadow"
       id="radialGradient58448"
       cx="30.929798"
       cy="220.76982"
       fx="30.929798"
       fy="220.76982"
       r="262.62708"
       gradientTransform="matrix(0.52879777,0.10812292,-0.11180793,0.54682007,106.35169,177.1279)"
       gradientUnits="userSpaceOnUse" /><radialGradient
       inkscape:collect="always"
       xlink:href="#petalShadow"
       id="radialGradient58454"
       gradientUnits="userSpaceOnUse"
       gradientTransform="matrix(0.71426268,-0.41237975,0.46209437,0.80037093,-64.994126,454.6953)"
       cx="602.82819"
       cy="105.27981"
       fx="602.82819"
       fy="105.27981"
       r="262.62708" /><radialGradient
       inkscape:collect="always"
       xlink:href="#linearGradient96677"
       id="radialGradient79053"
       cx="41.094402"
       cy="564.85919"
       fx="41.094402"
       fy="564.85919"
       r="262.62707"
       gradientTransform="matrix(0.23646824,-0.42376115,1.910603,1.0661595,-641.99201,-88.272944)"
       gradientUnits="userSpaceOnUse" /><radialGradient
       inkscape:collect="always"
       xlink:href="#linearGradient79051"
       id="radialGradient79057"
       gradientUnits="userSpaceOnUse"
       gradientTransform="matrix(0.47691312,0.46798216,-1.6712166,1.7031099,1371.3508,-484.70587)"
       cx="41.094402"
       cy="564.85919"
       fx="41.094402"
       fy="564.85919"
       r="262.62707" /><radialGradient
       inkscape:collect="always"
       xlink:href="#linearGradient79051"
       id="radialGradient79061"
       gradientUnits="userSpaceOnUse"
       gradientTransform="matrix(0.34639079,-0.09486475,0.25902415,0.94580537,286.40031,-33.805599)"
       cx="41.094402"
       cy="564.85919"
       fx="41.094402"
       fy="564.85919"
       r="262.62707" /><radialGradient
       inkscape:collect="always"
       xlink:href="#linearGradient81861"
       id="radialGradient94046"
       cx="427.47339"
       cy="501.28989"
       fx="427.47339"
       fy="501.28989"
       r="262.62708"
       gradientTransform="matrix(0.87732234,-0.47990155,0.88499782,1.6178909,-376.123,-106.90494)"
       gradientUnits="userSpaceOnUse" /><radialGradient
       inkscape:collect="always"
       xlink:href="#linearGradient102214"
       id="radialGradient102216"
       cx="305.36707"
       cy="363.63528"
       fx="305.36707"
       fy="363.63528"
       r="262.62707"
       gradientTransform="matrix(2.8959316,-0.46122807,0.17968359,1.1281867,-644.29437,94.230649)"
       gradientUnits="userSpaceOnUse" /><radialGradient
       inkscape:collect="always"
       xlink:href="#linearGradient79051"
       id="radialGradient102535"
       gradientUnits="userSpaceOnUse"
       gradientTransform="matrix(1.1636224,-0.4631617,0.63815071,1.6032562,38.663544,-390.03782)"
       cx="41.094402"
       cy="564.85919"
       fx="41.094402"
       fy="564.85919"
       r="262.62707" /><radialGradient
       inkscape:collect="always"
       xlink:href="#linearGradient107534"
       id="radialGradient107536"
       cx="390.0365"
       cy="443.53577"
       fx="390.0365"
       fy="443.53577"
       r="262.62707"
       gradientTransform="matrix(0.91456557,-0.40443765,0.58856171,1.3309302,-212.51997,0.35520516)"
       gradientUnits="userSpaceOnUse" /><radialGradient
       inkscape:collect="always"
       xlink:href="#linearGradient107864"
       id="radialGradient107866"
       cx="-122.99174"
       cy="412.69083"
       fx="-122.99174"
       fy="412.69083"
       r="217.56515"
       gradientTransform="matrix(0.29588171,-0.19857476,1.1891338,1.7718409,-274.74699,-318.12145)"
       gradientUnits="userSpaceOnUse" /><radialGradient
       inkscape:collect="always"
       xlink:href="#linearGradient112182"
       id="radialGradient112174"
       cx="-7.3015747"
       cy="402.16333"
       fx="-7.3015747"
       fy="402.16333"
       r="178.6689"
       gradientTransform="matrix(0.62760244,-0.43164494,0.8547049,1.2427225,-238.02741,22.390165)"
       gradientUnits="userSpaceOnUse" /><linearGradient
       inkscape:collect="always"
       id="linearGradient112182"><stop
         style="stop-color:#d82700;stop-opacity:1;"
         offset="0"
         id="stop112178" /><stop
         style="stop-color:#d82700;stop-opacity:0;"
         offset="1"
         id="stop112180" /></linearGradient><radialGradient
       inkscape:collect="always"
       xlink:href="#linearGradient127766"
       id="radialGradient125560"
       gradientUnits="userSpaceOnUse"
       gradientTransform="matrix(0.57927725,-0.48829893,1.0392588,1.2328899,-174.4071,-127.41896)"
       cx="-137.49887"
       cy="425.75339"
       fx="-137.49887"
       fy="425.75339"
       r="217.56515" /><linearGradient
       inkscape:collect="always"
       xlink:href="#linearGradient131453"
       id="linearGradient131455"
       x1="29.975664"
       y1="196.00743"
       x2="147.74295"
       y2="286.57477"
       gradientUnits="userSpaceOnUse" /></defs><sodipodi:namedview
     id="namedview4"
     pagecolor="#ffffff"
     bordercolor="#000000"
     borderopacity="0.25"
     inkscape:showpageshadow="2"
     inkscape:pageopacity="0.0"
     inkscape:pagecheckerboard="0"
     inkscape:deskcolor="#d1d1d1"
     showgrid="false"
     inkscape:zoom="0.7071068"
     inkscape:cx="355.6747"
     inkscape:cy="342.23967"
     inkscape:window-width="1920"
     inkscape:window-height="1008"
     inkscape:window-x="0"
     inkscape:window-y="768"
     inkscape:window-maximized="1"
     inkscape:current-layer="backdropBottom" /><g
     inkscape:groupmode="layer"
     inkscape:label="Image"
     id="g8"><g
       id="backdropBottom"><rect
         style="fill:url(#linearGradient2687-6);fill-opacity:1"
         id="rect168-7"
         width="242.79349"
         height="238.15837"
         x="0"
         y="415.84164" /></g><g
       id="g5911-8-4"><g
         id="backdropTop"><rect
           style="opacity:1;fill:url(#linearGradient75867-4-8);fill-opacity:1"
           id="rect73895-7-3"
           width="654"
           height="337.60611"
           x="0"
           y="0" /><rect
           style="opacity:1;fill:url(#radialGradient83679-9-7);fill-opacity:1"
           id="rect82360-4-9"
           width="335.57782"
           height="337.60611"
           x="318.42218"
           y="0" /></g><g
         id="leftPetalBack"><g
           id="g99760-8-9"><path
             id="path99762-9-9"
             style="opacity:1;fill:url(#radialGradient46970-1-9);fill-opacity:1"
             d="M 0,407.9761 V 258.91254 C 181.91936,107.37292 347.84648,520.28601 357.33781,654 357.33781,654 71.752691,449.85882 0,407.9761 Z m 0,0 V 185.21434 C 181.91936,33.674716 347.84648,520.28601 357.33781,654 l -115.59063,2e-5 C 198.91078,513.49182 71.752691,449.85882 0,407.9761 Z"
             sodipodi:nodetypes="ccccccccc" /><path
             id="path108191"
             style="opacity:0.5;fill:url(#radialGradient112174);fill-opacity:1"
             d="M 0,407.9761 V 258.91254 C 181.91936,107.37292 347.84648,520.28601 357.33781,654 357.33781,654 71.752691,449.85882 0,407.9761 Z m 0,0 V 185.21434 C 181.91936,33.674716 347.84648,520.28601 357.33781,654 l -115.59063,2e-5 C 198.91078,513.49182 71.752691,449.85882 0,407.9761 Z"
             sodipodi:nodetypes="ccccccccc" /></g><path
           id="path46968-6-7-3"
           style="opacity:1;fill:url(#radialGradient101564-9-2);fill-opacity:1"
           d="M 110.13867 141.02539 C 95.345581 141.00368 80.359078 142.3625 65.212891 143.00781 C 43.757227 143.92196 21.98539 146.12953 0 154.7168 L 0 203.16992 L 0.12890625 203.24414 L 182.33008 162.30859 C 158.91165 144.9295 134.79382 141.06157 110.13867 141.02539 z " /></g><g
         id="centerPetalBack"
         style="fill:#ffd046;fill-opacity:1"><g
           id="petalBase"><path
             id="path8227-7-6"
             style="opacity:1;fill:#ffd450;fill-opacity:1"
             d="M 199.67225,388.72346 C 107.04078,262.18006 44.577575,248.92347 42.795425,211.04973 41.013275,173.17599 82.45522,180.38003 132.5169,142.94076 182.57857,105.50149 276.37355,22.36102 474.68672,116.77066 672.99989,211.18031 498.51533,577.10931 466.24162,654 H 327.11554 c 0,0 -19.16002,-117.35131 -127.44329,-265.27654 z"
             sodipodi:nodetypes="szzzccs" /></g><g
           id="petalShadows"><path
             id="path54990"
             style="opacity:1;fill:url(#radialGradient58448);fill-opacity:1.0"
             d="M 199.67225,388.72346 C 107.04078,262.18006 44.577575,248.92347 42.795425,211.04973 41.013275,173.17599 82.45522,180.38003 132.5169,142.94076 182.57857,105.50149 276.37355,22.36102 474.68672,116.77066 672.99989,211.18031 498.51533,577.10931 466.24162,654 H 327.11554 c 0,0 -19.16002,-117.35131 -127.44329,-265.27654 z"
             sodipodi:nodetypes="szzzccs" /><path
             id="path58452"
             style="opacity:1;fill:url(#radialGradient58454);fill-opacity:1"
             d="M 199.67225,388.72346 C 107.04078,262.18006 44.577575,248.92347 42.795425,211.04973 41.013275,173.17599 82.45522,180.38003 132.5169,142.94076 182.57857,105.50149 276.37355,22.36102 474.68672,116.77066 672.99989,211.18031 498.51533,577.10931 466.24162,654 H 327.11554 c 0,0 -19.16002,-117.35131 -127.44329,-265.27654 z"
             sodipodi:nodetypes="szzzccs" /><path
             id="path107538"
             style="opacity:1;fill:url(#radialGradient107536);fill-opacity:1"
             d="M 199.67225,388.72346 C 107.04078,262.18006 44.577575,248.92347 42.795425,211.04973 41.013275,173.17599 82.45522,180.38003 132.5169,142.94076 182.57857,105.50149 276.37355,22.36102 474.68672,116.77066 672.99989,211.18031 498.51533,577.10931 466.24162,654 H 327.11554 c 0,0 -19.16002,-117.35131 -127.44329,-265.27654 z"
             sodipodi:nodetypes="szzzccs" /></g><g
           id="deepRed"><g
             id="g94049"><path
               id="path94042"
               style="opacity:1;fill:url(#radialGradient94046);fill-opacity:1"
               d="M 199.67225,388.72346 C 107.04078,262.18006 44.577575,248.92347 42.795425,211.04973 41.013275,173.17599 82.45522,180.38003 132.5169,142.94076 182.57857,105.50149 276.37355,22.36102 474.68672,116.77066 672.99989,211.18031 498.51533,577.10931 466.24162,654 H 327.11554 c 0,0 -19.16002,-117.35131 -127.44329,-265.27654 z"
               sodipodi:nodetypes="szzzccs" /></g><path
             id="path59046"
             style="fill:url(#radialGradient79053);fill-opacity:1"
             d="M 199.67225,388.72346 C 107.04078,262.18006 44.577575,248.92347 42.795425,211.04973 41.013275,173.17599 82.45522,180.38003 132.5169,142.94076 182.57857,105.50149 276.37355,22.36102 474.68672,116.77066 672.99989,211.18031 498.51533,577.10931 466.24162,654 H 327.11554 c 0,0 -19.16002,-117.35131 -127.44329,-265.27654 z"
             sodipodi:nodetypes="szzzccs" /><path
             id="path79055"
             style="opacity:1;fill:url(#radialGradient79057);fill-opacity:1"
             d="M 199.67225,388.72346 C 107.04078,262.18006 44.577575,248.92347 42.795425,211.04973 41.013275,173.17599 82.45522,180.38003 132.5169,142.94076 182.57857,105.50149 276.37355,22.36102 474.68672,116.77066 672.99989,211.18031 498.51533,577.10931 466.24162,654 H 327.11554 c 0,0 -19.16002,-117.35131 -127.44329,-265.27654 z"
             sodipodi:nodetypes="szzzccs" /><path
             id="path79059"
             style="opacity:1;fill:url(#radialGradient79061);fill-opacity:1"
             d="M 199.67225,388.72346 C 107.04078,262.18006 44.577575,248.92347 42.795425,211.04973 41.013275,173.17599 82.45522,180.38003 132.5169,142.94076 182.57857,105.50149 276.37355,22.36102 474.68672,116.77066 672.99989,211.18031 498.51533,577.10931 466.24162,654 H 327.11554 c 0,0 -19.16002,-117.35131 -127.44329,-265.27654 z"
             sodipodi:nodetypes="szzzccs" /><use
             x="0"
             y="0"
             xlink:href="#path79059"
             id="use79378" /><path
             id="petalHighlight"
             style="opacity:1;fill:url(#radialGradient102216);fill-opacity:1"
             d="M 199.67225,388.72346 C 107.04078,262.18006 44.577575,248.92347 42.795425,211.04973 41.013275,173.17599 82.45522,180.38003 132.5169,142.94076 182.57857,105.50149 276.37355,22.36102 474.68672,116.77066 672.99989,211.18031 498.51533,577.10931 466.24162,654 H 327.11554 c 0,0 -19.16002,-117.35131 -127.44329,-265.27654 z"
             sodipodi:nodetypes="szzzccs" /><path
             id="lineDisrupt"
             style="opacity:0.75;fill:url(#radialGradient102535);fill-opacity:1"
             d="M 199.67225,388.72346 C 107.04078,262.18006 44.577575,248.92347 42.795425,211.04973 41.013275,173.17599 82.45522,180.38003 132.5169,142.94076 182.57857,105.50149 276.37355,22.36102 474.68672,116.77066 672.99989,211.18031 498.51533,577.10931 466.24162,654 H 327.11554 c 0,0 -19.16002,-117.35131 -127.44329,-265.27654 z"
             sodipodi:nodetypes="szzzccs" /></g></g><g
         id="leftPetalFront"><path
           id="rect5913-4-4"
           style="opacity:1;fill:url(#radialGradient9358-5-3);fill-opacity:1"
           d="M 0,434.41152 V 327 c 205.47306,100.89076 233.30216,193.28601 242.79349,327 l -37.91613,-2e-5 C 162.04096,513.49178 71.75269,476.29424 0,434.41152 Z"
           sodipodi:nodetypes="ccccc" /><path
           id="highlight1"
           style="color:#000000;opacity:0.25;fill:#ffeb87;fill-opacity:1;stroke-width:2;-inkscape-stroke:none"
           d="m 3e-6,327 v 1.15169 l 1,0.48894 C 102.70059,378.7704 160.52151,426.77267 194.05078,478.73438 227.56291,530.66952 236.94285,586.67298 241.70898,653 l 0.0382,1.00002 1.04576,-2e-5 C 233.30163,520.28627 205.47261,427.89056 -2.7e-5,327 Z"
           sodipodi:nodetypes="cccsccccc" /></g><g
         id="rightPetalFront"><path
           id="path5969-3-6"
           style="opacity:1;fill:url(#radialGradient25727-6-0);fill-opacity:1"
           d="M 654,146.85508 C 450.53642,388.36376 398.93021,654 398.93021,654 H 654 Z"
           sodipodi:nodetypes="cccc" /><path
           id="path5967-3-2"
           style="opacity:1;fill:url(#radialGradient34636-5-0);fill-opacity:1"
           d="M 654,371.08614 C 379.1145,583.22862 425.50847,654 425.50847,654 H 654 Z"
           sodipodi:nodetypes="cccc" /><path
           id="highlight2"
           style="color:#000000;fill:#ffeb87;fill-opacity:1;stroke-width:2;-inkscape-stroke:none;opacity:0.25"
           d="M 654,371.08594 C 379.11504,583.228 425.50781,654 425.50781,654 h 1.26033 l -0.60994,-1 c -0.14408,-0.2356 -0.54683,-0.81392 -1.15039,-2.75195 -0.70243,-2.25552 -1.42647,-5.74852 -1.45312,-10.62696 -0.0533,-9.75685 2.68323,-25.07086 14.00781,-47.0664 C 460.11976,548.74206 516.82761,478.44837 653,373.14258 l 1,-0.74192 z"
           sodipodi:nodetypes="ccccsssccc" /><path
           id="path163286"
           style="color:#000000;fill:#ffeb87;fill-opacity:1;stroke-width:2;-inkscape-stroke:none;opacity:0.25"
           d="M 654,146.85547 C 450.53682,388.36368 398.92969,654 398.92969,654 h 1.06677 l 0.17737,-1 C 401.46263,646.49188 453.75191,387.34303 653,149.6504 l 1,-1.10207 z"
           sodipodi:nodetypes="ccccccc" /></g><path
         id="path83841-3-6"
         style="opacity:0.503318;fill:url(#radialGradient86059-1-1);fill-opacity:1"
         d="m 484.65533,118.41799 c 0,0 -95.40589,46.27381 -78.99944,167.46946 16.40646,121.19565 81.3764,178.36451 81.3764,178.36451 L 648.6002,302.68405 Z"
         sodipodi:nodetypes="czccc" /></g><g
       id="centerPetalFront"><path
         id="path8227"
         style="opacity:1;fill:url(#radialGradient11111);fill-opacity:1"
         d="M 42.945312 204.9707 C 42.767666 206.87061 42.692248 208.86683 42.794922 211.04883 C 44.577069 248.92253 107.0405 262.17938 199.67188 388.72266 C 307.95504 536.64774 327.11523 654 327.11523 654 L 466.24219 654 C 524.09554 506.03216 354.75123 409.00879 211.47461 328.68555 C 155.8227 297.48616 93.138825 265.45226 61.375 236.80469 C 54.244268 230.37353 48.847499 224.93229 46.070312 219.125 C 43.877346 214.53934 43.270836 209.79524 42.945312 204.9707 z " /><path
         id="path125226"
         style="opacity:0.3;fill:url(#radialGradient125560);fill-opacity:1"
         d="m 42.911143,204.96459 c -0.177646,1.89991 -0.218895,3.90224 -0.116221,6.08424 1.782147,37.8737 64.245578,51.13055 156.876958,177.67383 C 307.95504,536.64774 327.11523,654 327.11523,654 H 466.24219 C 524.09554,506.03216 354.75123,409.00879 211.47461,328.68555 155.8227,297.48616 93.138825,265.45226 61.375,236.80469 54.244268,230.37353 48.847499,224.93229 46.070312,219.125 c -2.192966,-4.58566 -2.833645,-9.33587 -3.159169,-14.16041 z"
         sodipodi:nodetypes="cssccsssc" /><path
         id="path107858"
         style="opacity:1;fill:url(#radialGradient107866);fill-opacity:1"
         d="m 42.911143,204.96459 c -0.177646,1.89991 -0.218895,3.90224 -0.116221,6.08424 1.782147,37.8737 64.245578,51.13055 156.876958,177.67383 C 307.95504,536.64774 327.11523,654 327.11523,654 H 466.24219 C 524.09554,506.03216 354.75123,409.00879 211.47461,328.68555 155.8227,297.48616 93.138825,265.45226 61.375,236.80469 54.244268,230.37353 48.847499,224.93229 46.070312,219.125 c -2.192966,-4.58566 -2.833645,-9.33587 -3.159169,-14.16041 z"
         sodipodi:nodetypes="cssccsssc" /><path
         id="path130128"
         style="opacity:1;fill:url(#linearGradient131455);fill-opacity:1"
         d="m 42.911143,204.96459 c -0.177646,1.89991 -0.218895,3.90224 -0.116221,6.08424 1.782147,37.8737 64.245578,51.13055 156.876958,177.67383 C 307.95504,536.64774 327.11523,654 327.11523,654 H 466.24219 C 524.09554,506.03216 354.75123,409.00879 211.47461,328.68555 155.8227,297.48616 93.138825,265.45226 61.375,236.80469 54.244268,230.37353 48.847499,224.93229 46.070312,219.125 c -2.192966,-4.58566 -2.833645,-9.33587 -3.159169,-14.16041 z"
         sodipodi:nodetypes="cssccsssc" /><path
         id="highlight4"
         style="color:#000000;fill:#f9cc62;fill-opacity:1;-inkscape-stroke:none;opacity:0.25"
         d="m 42.910571,204.96459 c -0.17764,1.89991 -0.21889,3.90224 -0.11622,6.08424 0.74311,4.29455 1.23183,5.89341 3.29493,10.0625 3.04599,5.43898 8.08671,10.54751 14.61523,16.43555 31.97431,28.83739 94.654209,60.82627 150.281249,92.01171 71.63488,40.1597 149.72585,84.4841 202.58984,137.12696 26.432,26.32142 46.54946,54.70624 56.46289,85.66015 9.85564,30.77348 9.63412,64.10349 -4.50781,100.6543 l -0.41898,1 h 1.12992 C 524.09485,506.03246 354.75038,409.00863 211.47404,328.68555 155.82225,297.48622 93.138201,265.4522 61.374431,236.80469 c -7.13071,-6.43116 -12.5275,-11.87242 -15.30469,-17.67969 -2.19296,-4.58566 -2.83364,-9.33587 -3.15917,-14.16041 z"
         sodipodi:nodetypes="ccccssscccsssc" /></g></g></svg>
